  0
SECTION
  2
HEADER
  9
$ACADVER
  1
AC1024
  9
$ACADMAINTVER
 70
     6
  9
$DWGCODEPAGE
  3
ANSI_1252
  9
$INSBASE
 10
0.0
 20
0.0
 30
0.0
  9
$EXTMIN
 10
1.000000000000000E+20
 20
1.000000000000000E+20
 30
1.000000000000000E+20
  9
$EXTMAX
 10
-1.000000000000000E+20
 20
-1.000000000000000E+20
 30
-1.000000000000000E+20
  9
$LIMMIN
 10
0.0
 20
0.0
  9
$LIMMAX
 10
12.0
 20
9.0
  9
$ORTHOMODE
 70
     0
  9
$REGENMODE
 70
     1
  9
$FILLMODE
 70
     1
  9
$QTEXTMODE
 70
     0
  9
$MIRRTEXT
 70
     1
  9
$LTSCALE
 40
1.0
  9
$ATTMODE
 70
     1
  9
$TEXTSIZE
 40
0.2
  9
$TRACEWID
 40
0.05
  9
$TEXTSTYLE
  7
Standard
  9
$CLAYER
  8
0
  9
$CELTYPE
  6
ByLayer
  9
$CECOLOR
 62
   256
  9
$CELTSCALE
 40
1.0
  9
$DISPSILH
 70
     0
  9
$DIMSCALE
 40
1.0
  9
$DIMASZ
 40
0.18
  9
$DIMEXO
 40
0.0625
  9
$DIMDLI
 40
0.38
  9
$DIMRND
 40
0.0
  9
$DIMDLE
 40
0.0
  9
$DIMEXE
 40
0.18
  9
$DIMTP
 40
0.0
  9
$DIMTM
 40
0.0
  9
$DIMTXT
 40
0.18
  9
$DIMCEN
 40
0.09
  9
$DIMTSZ
 40
0.0
  9
$DIMTOL
 70
     0
  9
$DIMLIM
 70
     0
  9
$DIMTIH
 70
     1
  9
$DIMTOH
 70
     1
  9
$DIMSE1
 70
     0
  9
$DIMSE2
 70
     0
  9
$DIMTAD
 70
     0
  9
$DIMZIN
 70
     0
  9
$DIMBLK
  1

  9
$DIMASO
 70
     1
  9
$DIMSHO
 70
     1
  9
$DIMPOST
  1

  9
$DIMAPOST
  1

  9
$DIMALT
 70
     0
  9
$DIMALTD
 70
     2
  9
$DIMALTF
 40
25.4
  9
$DIMLFAC
 40
1.0
  9
$DIMTOFL
 70
     0
  9
$DIMTVP
 40
0.0
  9
$DIMTIX
 70
     0
  9
$DIMSOXD
 70
     0
  9
$DIMSAH
 70
     0
  9
$DIMBLK1
  1

  9
$DIMBLK2
  1

  9
$DIMSTYLE
  2
Standard
  9
$DIMCLRD
 70
     0
  9
$DIMCLRE
 70
     0
  9
$DIMCLRT
 70
     0
  9
$DIMTFAC
 40
1.0
  9
$DIMGAP
 40
0.09
  9
$DIMJUST
 70
     0
  9
$DIMSD1
 70
     0
  9
$DIMSD2
 70
     0
  9
$DIMTOLJ
 70
     1
  9
$DIMTZIN
 70
     0
  9
$DIMALTZ
 70
     0
  9
$DIMALTTZ
 70
     0
  9
$DIMUPT
 70
     0
  9
$DIMDEC
 70
     4
  9
$DIMTDEC
 70
     4
  9
$DIMALTU
 70
     2
  9
$DIMALTTD
 70
     2
  9
$DIMTXSTY
  7
Standard
  9
$DIMAUNIT
 70
     0
  9
$DIMADEC
 70
     0
  9
$DIMALTRND
 40
0.0
  9
$DIMAZIN
 70
     0
  9
$DIMDSEP
 70
    46
  9
$DIMATFIT
 70
     3
  9
$DIMFRAC
 70
     0
  9
$DIMLDRBLK
  1

  9
$DIMLUNIT
 70
     2
  9
$DIMLWD
 70
    -2
  9
$DIMLWE
 70
    -2
  9
$DIMTMOVE
 70
     0
  9
$DIMFXL
 40
1.0
  9
$DIMFXLON
 70
     0
  9
$DIMJOGANG
 40
0.7853981633974483
  9
$DIMTFILL
 70
     0
  9
$DIMTFILLCLR
 70
     0
  9
$DIMARCSYM
 70
     0
  9
$DIMLTYPE
  6

  9
$DIMLTEX1
  6

  9
$DIMLTEX2
  6

  9
$DIMTXTDIRECTION
 70
     0
  9
$LUNITS
 70
     2
  9
$LUPREC
 70
     4
  9
$SKETCHINC
 40
0.1
  9
$FILLETRAD
 40
0.5
  9
$AUNITS
 70
     0
  9
$AUPREC
 70
     0
  9
$MENU
  1
.
  9
$ELEVATION
 40
0.0
  9
$PELEVATION
 40
0.0
  9
$THICKNESS
 40
0.0
  9
$LIMCHECK
 70
     0
  9
$CHAMFERA
 40
0.5
  9
$CHAMFERB
 40
0.5
  9
$CHAMFERC
 40
1.0
  9
$CHAMFERD
 40
0.0
  9
$SKPOLY
 70
     0
  9
$TDCREATE
 40
2458957.779149525
  9
$TDUCREATE
 40
2458957.549982859
  9
$TDUPDATE
 40
2458957.779150498
  9
$TDUUPDATE
 40
2458957.549983831
  9
$TDINDWG
 40
0.0000000116
  9
$TDUSRTIMER
 40
0.0000000116
  9
$USRTIMER
 70
     1
  9
$ANGBASE
 50
0.0
  9
$ANGDIR
 70
     0
  9
$PDMODE
 70
     0
  9
$PDSIZE
 40
0.0
  9
$PLINEWID
 40
0.0
  9
$SPLFRAME
 70
     0
  9
$SPLINETYPE
 70
     6
  9
$SPLINESEGS
 70
     8
  9
$HANDSEED
  5
160
  9
$SURFTAB1
 70
     6
  9
$SURFTAB2
 70
     6
  9
$SURFTYPE
 70
     6
  9
$SURFU
 70
     6
  9
$SURFV
 70
     6
  9
$UCSBASE
  2

  9
$UCSNAME
  2

  9
$UCSORG
 10
0.0
 20
0.0
 30
0.0
  9
$UCSXDIR
 10
1.0
 20
0.0
 30
0.0
  9
$UCSYDIR
 10
0.0
 20
1.0
 30
0.0
  9
$UCSORTHOREF
  2

  9
$UCSORTHOVIEW
 70
     0
  9
$UCSORGTOP
 10
0.0
 20
0.0
 30
0.0
  9
$UCSORGBOTTOM
 10
0.0
 20
0.0
 30
0.0
  9
$UCSORGLEFT
 10
0.0
 20
0.0
 30
0.0
  9
$UCSORGRIGHT
 10
0.0
 20
0.0
 30
0.0
  9
$UCSORGFRONT
 10
0.0
 20
0.0
 30
0.0
  9
$UCSORGBACK
 10
0.0
 20
0.0
 30
0.0
  9
$PUCSBASE
  2

  9
$PUCSNAME
  2

  9
$PUCSORG
 10
0.0
 20
0.0
 30
0.0
  9
$PUCSXDIR
 10
1.0
 20
0.0
 30
0.0
  9
$PUCSYDIR
 10
0.0
 20
1.0
 30
0.0
  9
$PUCSORTHOREF
  2

  9
$PUCSORTHOVIEW
 70
     0
  9
$PUCSORGTOP
 10
0.0
 20
0.0
 30
0.0
  9
$PUCSORGBOTTOM
 10
0.0
 20
0.0
 30
0.0
  9
$PUCSORGLEFT
 10
0.0
 20
0.0
 30
0.0
  9
$PUCSORGRIGHT
 10
0.0
 20
0.0
 30
0.0
  9
$PUCSORGFRONT
 10
0.0
 20
0.0
 30
0.0
  9
$PUCSORGBACK
 10
0.0
 20
0.0
 30
0.0
  9
$USERI1
 70
     0
  9
$USERI2
 70
     0
  9
$USERI3
 70
     0
  9
$USERI4
 70
     0
  9
$USERI5
 70
     0
  9
$USERR1
 40
0.0
  9
$USERR2
 40
0.0
  9
$USERR3
 40
0.0
  9
$USERR4
 40
0.0
  9
$USERR5
 40
0.0
  9
$WORLDVIEW
 70
     1
  9
$SHADEDGE
 70
     3
  9
$SHADEDIF
 70
    70
  9
$TILEMODE
 70
     1
  9
$MAXACTVP
 70
    64
  9
$PINSBASE
 10
0.0
 20
0.0
 30
0.0
  9
$PLIMCHECK
 70
     0
  9
$PEXTMIN
 10
1.000000000000000E+20
 20
1.000000000000000E+20
 30
1.000000000000000E+20
  9
$PEXTMAX
 10
-1.000000000000000E+20
 20
-1.000000000000000E+20
 30
-1.000000000000000E+20
  9
$PLIMMIN
 10
0.0
 20
0.0
  9
$PLIMMAX
 10
12.0
 20
9.0
  9
$UNITMODE
 70
     0
  9
$VISRETAIN
 70
     1
  9
$PLINEGEN
 70
     0
  9
$PSLTSCALE
 70
     1
  9
$TREEDEPTH
 70
  3020
  9
$CMLSTYLE
  2
Standard
  9
$CMLJUST
 70
     0
  9
$CMLSCALE
 40
1.0
  9
$PROXYGRAPHICS
 70
     1
  9
$MEASUREMENT
 70
     0
  9
$CELWEIGHT
370
    -1
  9
$ENDCAPS
280
     0
  9
$JOINSTYLE
280
     0
  9
$LWDISPLAY
290
     1
  9
$INSUNITS
 70
     4
  9
$HYPERLINKBASE
  1

  9
$STYLESHEET
  1

  9
$XEDIT
290
     1
  9
$CEPSNTYPE
380
     0
  9
$PSTYLEMODE
290
     1
  9
$FINGERPRINTGUID
  2
{A9AEBC5E-C33D-4A5F-BBF9-EB79DA6D13CC}
  9
$VERSIONGUID
  2
{FAEB1C32-E019-11D5-929B-00C0DF256EC4}
  9
$EXTNAMES
290
     1
  9
$PSVPSCALE
 40
0.0
  9
$OLESTARTUP
290
     0
  9
$SORTENTS
280
   127
  9
$INDEXCTL
280
     0
  9
$HIDETEXT
280
     1
  9
$XCLIPFRAME
280
     2
  9
$HALOGAP
280
     0
  9
$OBSCOLOR
 70
   257
  9
$OBSLTYPE
280
     0
  9
$INTERSECTIONDISPLAY
280
     0
  9
$INTERSECTIONCOLOR
 70
   257
  9
$DIMASSOC
280
     2
  9
$PROJECTNAME
  1

  9
$CAMERADISPLAY
290
     0
  9
$LENSLENGTH
 40
50.0
  9
$CAMERAHEIGHT
 40
0.0
  9
$STEPSPERSEC
 40
2.0
  9
$STEPSIZE
 40
6.0
  9
$3DDWFPREC
 40
2.0
  9
$PSOLWIDTH
 40
0.25
  9
$PSOLHEIGHT
 40
4.0
  9
$LOFTANG1
 40
1.570796326794897
  9
$LOFTANG2
 40
1.570796326794897
  9
$LOFTMAG1
 40
0.0
  9
$LOFTMAG2
 40
0.0
  9
$LOFTPARAM
 70
     7
  9
$LOFTNORMALS
280
     1
  9
$LATITUDE
 40
37.795
  9
$LONGITUDE
 40
-122.394
  9
$NORTHDIRECTION
 40
0.0
  9
$TIMEZONE
 70
 -8000
  9
$LIGHTGLYPHDISPLAY
280
     1
  9
$TILEMODELIGHTSYNCH
280
     1
  9
$CMATERIAL
347
3C
  9
$SOLIDHIST
280
     1
  9
$SHOWHIST
280
     1
  9
$DWFFRAME
280
     2
  9
$DGNFRAME
280
     2
  9
$REALWORLDSCALE
290
     1
  9
$INTERFERECOLOR
 62
   256
  9
$CSHADOW
280
     0
  9
$SHADOWPLANELOCATION
 40
0.0
  0
ENDSEC
  0
SECTION
  2
CLASSES
  0
CLASS
  1
ACDBDICTIONARYWDFLT
  2
AcDbDictionaryWithDefault
  3
ObjectDBX Classes
 90
        0
 91
        4
280
     0
281
     0
  0
CLASS
  1
VISUALSTYLE
  2
AcDbVisualStyle
  3
ObjectDBX Classes
 90
     4095
 91
        4
280
     0
281
     0
  0
CLASS
  1
MATERIAL
  2
AcDbMaterial
  3
ObjectDBX Classes
 90
     1153
 91
        4
280
     0
281
     0
  0
CLASS
  1
SUN
  2
AcDbSun
  3
SCENEOE
 90
     1024
 91
        4
280
     0
281
     0
  0
ENDSEC
  0
SECTION
  2
TABLES
  0
TABLE
  2
VPORT
  5
8
330
0
100
AcDbSymbolTable
 70
     1
  0
VPORT
  5
29
330
8
100
AcDbSymbolTableRecord
100
AcDbViewportTableRecord
  2
*Active
 70
     0
 10
0.0
 20
0.0
 11
1.0
 21
1.0
 12
0.0
 22
0.0
 13
0.0
 23
0.0
 14
0.5
 24
0.5
 15
0.5
 25
0.5
 16
0.0
 26
0.0
 36
1.0
 17
233.9780141259026
 27
-497.0563828544601
 37
0.0
 40
1015.999999746002
 41
0.5905511811023616
 42
50.0
 43
0.0
 44
0.0
 50
0.0
 51
0.0
 71
     0
 72
   100
 73
     1
 74
     3
 75
     0
 76
     0
 77
     0
 78
     0
281
     0
 65
     1
110
0.0
120
0.0
130
0.0
111
1.0
121
0.0
131
0.0
112
0.0
122
1.0
132
0.0
 79
     0
146
0.0
 60
     3
 61
     5
292
     1
282
     1
141
0.0
142
0.0
 63
   250
361
3F
  0
ENDTAB
  0
TABLE
  2
LTYPE
  5
5
330
0
100
AcDbSymbolTable
 70
     1
  0
LTYPE
  5
14
330
5
100
AcDbSymbolTableRecord
100
AcDbLinetypeTableRecord
  2
ByBlock
 70
     0
  3

 72
    65
 73
     0
 40
0.0
  0
LTYPE
  5
15
330
5
100
AcDbSymbolTableRecord
100
AcDbLinetypeTableRecord
  2
ByLayer
 70
     0
  3

 72
    65
 73
     0
 40
0.0
  0
LTYPE
  5
16
330
5
100
AcDbSymbolTableRecord
100
AcDbLinetypeTableRecord
  2
Continuous
 70
     0
  3
Solid line
 72
    65
 73
     0
 40
0.0
  0
ENDTAB
  0
TABLE
  2
LAYER
  5
2
330
0
100
AcDbSymbolTable
 70
     3
  0
LAYER
  5
10
330
2
100
AcDbSymbolTableRecord
100
AcDbLayerTableRecord
  2
0
 70
     0
 62
     7
  6
Continuous
370
    -3
390
F
347
3E
  0
LAYER
  5
40
330
2
100
AcDbSymbolTableRecord
100
AcDbLayerTableRecord
  2
Layer 1
 70
     0
 62
     7
  6
Continuous
370
    -3
390
F
347
3E
  0
LAYER
  5
F4
330
2
100
AcDbSymbolTableRecord
100
AcDbLayerTableRecord
  2
Layer 2
 70
     1
 62
     7
  6
Continuous
370
    -3
390
F
347
3E
  0
ENDTAB
  0
TABLE
  2
STYLE
  5
3
330
0
100
AcDbSymbolTable
 70
     1
  0
STYLE
  5
11
330
3
100
AcDbSymbolTableRecord
100
AcDbTextStyleTableRecord
  2
Standard
 70
     0
 40
0.0
 41
1.0
 50
0.0
 71
     0
 42
0.2
  3
txt
  4

  0
ENDTAB
  0
TABLE
  2
VIEW
  5
6
330
0
100
AcDbSymbolTable
 70
     0
  0
ENDTAB
  0
TABLE
  2
UCS
  5
7
330
0
100
AcDbSymbolTable
 70
     0
  0
ENDTAB
  0
TABLE
  2
APPID
  5
9
330
0
100
AcDbSymbolTable
 70
     1
  0
APPID
  5
12
330
9
100
AcDbSymbolTableRecord
100
AcDbRegAppTableRecord
  2
ACAD
 70
     0
  0
ENDTAB
  0
TABLE
  2
DIMSTYLE
  5
A
330
0
100
AcDbSymbolTable
 70
     1
100
AcDbDimStyleTable
  0
DIMSTYLE
105
27
330
A
100
AcDbSymbolTableRecord
100
AcDbDimStyleTableRecord
  2
Standard
 70
     0
178
     0
340
11
  0
ENDTAB
  0
TABLE
  2
BLOCK_RECORD
  5
1
330
0
100
AcDbSymbolTable
 70
    10
  0
BLOCK_RECORD
  5
1F
330
1
100
AcDbSymbolTableRecord
100
AcDbBlockTableRecord
  2
*Model_Space
340
22
 70
     0
280
     1
281
     0
  0
BLOCK_RECORD
  5
1B
330
1
100
AcDbSymbolTableRecord
100
AcDbBlockTableRecord
  2
*Paper_Space
340
1E
 70
     0
280
     1
281
     0
  0
BLOCK_RECORD
  5
23
330
1
100
AcDbSymbolTableRecord
100
AcDbBlockTableRecord
  2
*Paper_Space0
340
26
 70
     0
280
     1
281
     0
  0
BLOCK_RECORD
  5
F5
330
1
100
AcDbSymbolTableRecord
100
AcDbBlockTableRecord
  2
block 2
340
0
102
{BLKREFS
331
F6
102
}
 70
     0
280
     1
281
     0
  0
BLOCK_RECORD
  5
FA
330
1
100
AcDbSymbolTableRecord
100
AcDbBlockTableRecord
  2
block 3
340
0
102
{BLKREFS
331
FB
102
}
 70
     0
280
     1
281
     0
  0
BLOCK_RECORD
  5
FF
330
1
100
AcDbSymbolTableRecord
100
AcDbBlockTableRecord
  2
block 4
340
0
102
{BLKREFS
331
100
102
}
 70
     0
280
     1
281
     0
  0
BLOCK_RECORD
  5
104
330
1
100
AcDbSymbolTableRecord
100
AcDbBlockTableRecord
  2
block 5
340
0
102
{BLKREFS
331
105
102
}
 70
     0
280
     1
281
     0
  0
BLOCK_RECORD
  5
109
330
1
100
AcDbSymbolTableRecord
100
AcDbBlockTableRecord
  2
block 6
340
0
102
{BLKREFS
331
10A
102
}
 70
     0
280
     1
281
     0
  0
BLOCK_RECORD
  5
12E
330
1
100
AcDbSymbolTableRecord
100
AcDbBlockTableRecord
  2
block 7
340
0
102
{BLKREFS
331
12F
102
}
 70
     0
280
     1
281
     0
  0
BLOCK_RECORD
  5
136
330
1
100
AcDbSymbolTableRecord
100
AcDbBlockTableRecord
  2
block 8
340
0
102
{BLKREFS
331
137
102
}
 70
     0
280
     1
281
     0
  0
BLOCK_RECORD
  5
13E
330
1
100
AcDbSymbolTableRecord
100
AcDbBlockTableRecord
  2
block 9
340
0
102
{BLKREFS
331
13F
102
}
 70
     0
280
     1
281
     0
  0
BLOCK_RECORD
  5
146
330
1
100
AcDbSymbolTableRecord
100
AcDbBlockTableRecord
  2
block 10
340
0
102
{BLKREFS
331
147
102
}
 70
     0
280
     1
281
     0
  0
ENDTAB
  0
ENDSEC
  0
SECTION
  2
BLOCKS
  0
BLOCK
  5
20
330
1F
100
AcDbEntity
  8
0
100
AcDbBlockBegin
  2
*Model_Space
 70
     0
 10
0.0
 20
0.0
 30
0.0
  3
*Model_Space
  1

  0
ENDBLK
  5
21
330
1F
100
AcDbEntity
  8
0
100
AcDbBlockEnd
  0
BLOCK
  5
1C
330
1B
100
AcDbEntity
 67
     1
  8
0
100
AcDbBlockBegin
  2
*Paper_Space
 70
     0
 10
0.0
 20
0.0
 30
0.0
  3
*Paper_Space
  1

  0
ENDBLK
  5
1D
330
1B
100
AcDbEntity
 67
     1
  8
0
100
AcDbBlockEnd
  0
BLOCK
  5
24
330
23
100
AcDbEntity
  8
0
100
AcDbBlockBegin
  2
*Paper_Space0
 70
     0
 10
0.0
 20
0.0
 30
0.0
  3
*Paper_Space0
  1

  0
ENDBLK
  5
25
330
23
100
AcDbEntity
  8
0
100
AcDbBlockEnd
  0
BLOCK
  5
F7
330
F5
100
AcDbEntity
  8
0
100
AcDbBlockBegin
  2
block 2
 70
     0
 10
0.0
 20
0.0
 30
0.0
  3
block 2
  1

  0
MTEXT
  5
F9
330
F5
100
AcDbEntity
  8
Layer 2
 62
   153
420
  4755917
100
AcDbMText
 10
263.7496201597571
 20
23.317784282365
 30
0.0
 40
8.9915999977521
 41
0.0
 46
0.0
 71
     7
 72
     1
  1
\fArial|b0|i0|c0|p34;\W1.0079;684 mm
 73
     1
 44
1.0
  0
ENDBLK
  5
F8
330
F5
100
AcDbEntity
  8
0
100
AcDbBlockEnd
  0
BLOCK
  5
FC
330
FA
100
AcDbEntity
  8
0
100
AcDbBlockBegin
  2
block 3
 70
     0
 10
0.0
 20
0.0
 30
0.0
  3
block 3
  1

  0
MTEXT
  5
FE
330
FA
100
AcDbEntity
  8
Layer 2
 62
   153
420
  4755917
100
AcDbMText
 10
-87.95216808239564
 20
-64.71818574770934
 30
0.0
 40
8.9915999977521
 41
0.0
 46
0.0
 71
     7
 72
     1
  1
\fArial|b0|i0|c0|p34;\W1.0079;30 mm
 73
     1
 44
1.0
  0
ENDBLK
  5
FD
330
FA
100
AcDbEntity
  8
0
100
AcDbBlockEnd
  0
BLOCK
  5
101
330
FF
100
AcDbEntity
  8
0
100
AcDbBlockBegin
  2
block 4
 70
     0
 10
0.0
 20
0.0
 30
0.0
  3
block 4
  1

  0
MTEXT
  5
103
330
FF
100
AcDbEntity
  8
Layer 2
 62
   153
420
  4755917
100
AcDbMText
 10
43.1611036404684
 20
-174.5596723332047
 30
0.0
 40
8.9915999977521
 41
0.0
 46
0.0
 71
     7
 72
     1
  1
\fArial|b0|i0|c0|p34;\W1.0079;220 mm
 73
     1
 44
1.0
  0
ENDBLK
  5
102
330
FF
100
AcDbEntity
  8
0
100
AcDbBlockEnd
  0
BLOCK
  5
106
330
104
100
AcDbEntity
  8
0
100
AcDbBlockBegin
  2
block 5
 70
     0
 10
0.0
 20
0.0
 30
0.0
  3
block 5
  1

  0
MTEXT
  5
108
330
104
100
AcDbEntity
  8
Layer 2
 62
   153
420
  4755917
100
AcDbMText
 10
259.0930460811957
 20
-322.3735611851401
 30
0.0
 40
8.9915999977521
 41
0.0
 46
0.0
 71
     7
 72
     1
  1
\fArial|b0|i0|c0|p34;\W1.0079;335 mm
 73
     1
 44
1.0
  0
ENDBLK
  5
107
330
104
100
AcDbEntity
  8
0
100
AcDbBlockEnd
  0
BLOCK
  5
10B
330
109
100
AcDbEntity
  8
0
100
AcDbBlockBegin
  2
block 6
 70
     0
 10
0.0
 20
0.0
 30
0.0
  3
block 6
  1

  0
MTEXT
  5
10D
330
109
100
AcDbEntity
  8
Layer 2
 62
   153
420
  4755917
100
AcDbMText
 10
553.380175642905
 20
-92.04054902212876
 30
0.0
 40
8.9915999977521
 41
0.0
 46
0.0
 71
     7
 72
     1
  1
\fArial|b0|i0|c0|p34;\W1.0079;100 mm
 73
     1
 44
1.0
  0
ENDBLK
  5
10C
330
109
100
AcDbEntity
  8
0
100
AcDbBlockEnd
  0
BLOCK
  5
130
330
12E
100
AcDbEntity
  8
0
100
AcDbBlockBegin
  2
block 7
 70
     0
 10
0.0
 20
0.0
 30
0.0
  3
block 7
  1

  0
POLYLINE
  5
132
330
12E
100
AcDbEntity
  8
Layer 2
 62
   153
420
  4689612
370
    70
100
AcDb2dPolyline
 66
     1
 10
0.0
 20
0.0
 30
0.0
  0
VERTEX
  5
133
330
132
100
AcDbEntity
  8
Layer 2
 62
   153
420
  4689612
370
    70
100
AcDbVertex
100
AcDb2dVertex
 10
-55.11029429366586
 20
-26.71766775863073
 30
0.0
  0
VERTEX
  5
134
330
132
100
AcDbEntity
  8
Layer 2
 62
   153
420
  4689612
370
    70
100
AcDbVertex
100
AcDb2dVertex
 10
-55.11029429366586
 20
12.34722221913542
 30
0.0
  0
SEQEND
  5
135
330
132
100
AcDbEntity
  8
Layer 2
 62
   153
420
  4689612
370
    70
  0
ENDBLK
  5
131
330
12E
100
AcDbEntity
  8
0
100
AcDbBlockEnd
  0
BLOCK
  5
138
330
136
100
AcDbEntity
  8
0
100
AcDbBlockBegin
  2
block 8
 70
     0
 10
0.0
 20
0.0
 30
0.0
  3
block 8
  1

  0
POLYLINE
  5
13A
330
136
100
AcDbEntity
  8
Layer 2
 62
   153
420
  4689612
370
    70
100
AcDb2dPolyline
 66
     1
 10
0.0
 20
0.0
 30
0.0
  0
VERTEX
  5
13B
330
13A
100
AcDbEntity
  8
Layer 2
 62
   153
420
  4689612
370
    70
100
AcDbVertex
100
AcDb2dVertex
 10
628.8038806938612
 20
-68.43888887177884
 30
0.0
  0
VERTEX
  5
13C
330
13A
100
AcDbEntity
  8
Layer 2
 62
   153
420
  4689612
370
    70
100
AcDbVertex
100
AcDb2dVertex
 10
628.8038806938612
 20
12.34722221913542
 30
0.0
  0
SEQEND
  5
13D
330
13A
100
AcDbEntity
  8
Layer 2
 62
   153
420
  4689612
370
    70
  0
ENDBLK
  5
139
330
136
100
AcDbEntity
  8
0
100
AcDbBlockEnd
  0
BLOCK
  5
140
330
13E
100
AcDbEntity
  8
0
100
AcDbBlockBegin
  2
block 9
 70
     0
 10
0.0
 20
0.0
 30
0.0
  3
block 9
  1

  0
POLYLINE
  5
142
330
13E
100
AcDbEntity
  8
Layer 2
 62
   153
420
  4689612
370
    70
100
AcDb2dPolyline
 66
     1
 10
0.0
 20
0.0
 30
0.0
  0
VERTEX
  5
143
330
142
100
AcDbEntity
  8
Layer 2
 62
   153
420
  4689612
370
    70
100
AcDbVertex
100
AcDb2dVertex
 10
454.3778541189521
 20
-195.4389562264842
 30
0.0
  0
VERTEX
  5
144
330
142
100
AcDbEntity
  8
Layer 2
 62
   153
420
  4689612
370
    70
100
AcDbVertex
100
AcDb2dVertex
 10
454.3778541189521
 20
-305.5055247780583
 30
0.0
  0
SEQEND
  5
145
330
142
100
AcDbEntity
  8
Layer 2
 62
   153
420
  4689612
370
    70
  0
ENDBLK
  5
141
330
13E
100
AcDbEntity
  8
0
100
AcDbBlockEnd
  0
BLOCK
  5
148
330
146
100
AcDbEntity
  8
0
100
AcDbBlockBegin
  2
block 10
 70
     0
 10
0.0
 20
0.0
 30
0.0
  3
block 10
  1

  0
POLYLINE
  5
14A
330
146
100
AcDbEntity
  8
Layer 2
 62
   153
420
  4689612
370
    70
100
AcDb2dPolyline
 66
     1
 10
0.0
 20
0.0
 30
0.0
  0
VERTEX
  5
14B
330
14A
100
AcDbEntity
  8
Layer 2
 62
   153
420
  4689612
370
    70
100
AcDbVertex
100
AcDb2dVertex
 10
119.2391076560005
 20
-195.4389556990506
 30
0.0
  0
VERTEX
  5
14C
330
14A
100
AcDbEntity
  8
Layer 2
 62
   153
420
  4689612
370
    70
100
AcDbVertex
100
AcDb2dVertex
 10
119.2391076560005
 20
-305.5055242506234
 30
0.0
  0
SEQEND
  5
14D
330
14A
100
AcDbEntity
  8
Layer 2
 62
   153
420
  4689612
370
    70
  0
ENDBLK
  5
149
330
146
100
AcDbEntity
  8
0
100
AcDbBlockEnd
  0
ENDSEC
  0
SECTION
  2
ENTITIES
  0
SPLINE
  5
41
330
1F
100
AcDbEntity
  8
Layer 1
 62
     1
420
 16711680
370
    35
100
AcDbSpline
210
0.0
220
0.0
230
1.0
 70
    11
 71
     3
 72
    29
 73
    25
 74
     0
 42
0.0000000001
 43
0.0000000001
 12
1.0
 22
0.0
 32
0.0
 13
1.0
 23
0.0
 33
0.0
 40
0.0
 40
0.0
 40
0.0
 40
0.0
 40
1.0
 40
1.0
 40
1.0
 40
2.0
 40
2.0
 40
2.0
 40
3.0
 40
3.0
 40
3.0
 40
4.0
 40
4.0
 40
4.0
 40
5.0
 40
5.0
 40
5.0
 40
6.0
 40
6.0
 40
6.0
 40
7.0
 40
7.0
 40
7.0
 40
8.0
 40
8.0
 40
8.0
 40
8.0
 10
281.4006652251591
 20
-41.98691907933991
 30
0.0
 10
281.4006652251591
 20
-41.98691907933991
 30
0.0
 10
416.4006651914089
 20
-41.98691907933991
 30
0.0
 10
416.4006651914089
 20
-41.98691907933991
 30
0.0
 10
471.4006651776586
 20
-41.98691907933991
 30
0.0
 10
516.4006651664087
 20
-86.9869190680893
 30
0.0
 10
516.4006651664087
 20
-141.9869190543396
 30
0.0
 10
516.4006651664087
 20
-141.9869190543396
 30
0.0
 10
516.4006651664087
 20
-256.9869190255891
 30
0.0
 10
516.4006651664087
 20
-256.9869190255891
 30
0.0
 10
516.4006651664087
 20
-259.7369190249012
 30
0.0
 10
514.1506651669712
 20
-261.9869190243386
 30
0.0
 10
511.4006651676585
 20
-261.9869190243386
 30
0.0
 10
511.4006651676585
 20
-261.9869190243386
 30
0.0
 10
186.4006652489076
 20
-261.9869190243386
 30
0.0
 10
186.4006652489076
 20
-261.9869190243386
 30
0.0
 10
183.6506652495956
 20
-261.9869190243386
 30
0.0
 10
181.40066525016
 20
-259.7369190249025
 30
0.0
 10
181.40066525016
 20
-256.9869190255891
 30
0.0
 10
181.40066525016
 20
-256.9869190255891
 30
0.0
 10
181.40066525016
 20
-141.9869190543396
 30
0.0
 10
181.40066525016
 20
-141.9869190543396
 30
0.0
 10
181.40066525016
 20
-86.9869190680893
 30
0.0
 10
226.4006652389101
 20
-41.98691907933991
 30
0.0
 10
281.4006652251591
 20
-41.98691907933991
 30
0.0
  0
POLYLINE
  5
42
330
1F
100
AcDbEntity
  8
Layer 1
 62
     1
420
 16711680
370
    35
100
AcDb2dPolyline
 66
     1
 10
0.0
 20
0.0
 30
0.0
  0
VERTEX
  5
43
330
42
100
AcDbEntity
  8
Layer 1
 62
     1
420
 16711680
370
    35
100
AcDbVertex
100
AcDb2dVertex
 10
197.5608096905656
 20
-249.0595533710047
 30
0.0
  0
VERTEX
  5
44
330
42
100
AcDbEntity
  8
Layer 1
 62
     1
420
 16711680
370
    35
100
AcDbVertex
100
AcDb2dVertex
 10
209.2024763543218
 20
-249.0595533710047
 30
0.0
  0
VERTEX
  5
45
330
42
100
AcDbEntity
  8
Layer 1
 62
     1
420
 16711680
370
    35
100
AcDbVertex
100
AcDb2dVertex
 10
209.2024763543218
 20
-252.059553370256
 30
0.0
  0
VERTEX
  5
46
330
42
100
AcDbEntity
  8
Layer 1
 62
     1
420
 16711680
370
    35
100
AcDbVertex
100
AcDb2dVertex
 10
197.5608096905656
 20
-252.059553370256
 30
0.0
  0
VERTEX
  5
47
330
42
100
AcDbEntity
  8
Layer 1
 62
     1
420
 16711680
370
    35
100
AcDbVertex
100
AcDb2dVertex
 10
197.5608096905656
 20
-249.0595533710047
 30
0.0
  0
SEQEND
  5
48
330
42
100
AcDbEntity
  8
Layer 1
 62
     1
420
 16711680
370
    35
  0
POLYLINE
  5
49
330
1F
100
AcDbEntity
  8
Layer 1
 62
     1
420
 16711680
370
    35
100
AcDb2dPolyline
 66
     1
 10
0.0
 20
0.0
 30
0.0
  0
VERTEX
  5
4A
330
49
100
AcDbEntity
  8
Layer 1
 62
     1
420
 16711680
370
    35
100
AcDbVertex
100
AcDb2dVertex
 10
197.5608096905656
 20
-219.1343533784871
 30
0.0
  0
VERTEX
  5
4B
330
49
100
AcDbEntity
  8
Layer 1
 62
     1
420
 16711680
370
    35
100
AcDbVertex
100
AcDb2dVertex
 10
209.2024763543218
 20
-219.1343533784871
 30
0.0
  0
VERTEX
  5
4C
330
49
100
AcDbEntity
  8
Layer 1
 62
     1
420
 16711680
370
    35
100
AcDbVertex
100
AcDb2dVertex
 10
209.2024763543218
 20
-222.1343533777357
 30
0.0
  0
VERTEX
  5
4D
330
49
100
AcDbEntity
  8
Layer 1
 62
     1
420
 16711680
370
    35
100
AcDbVertex
100
AcDb2dVertex
 10
197.5608096905656
 20
-222.1343533777357
 30
0.0
  0
VERTEX
  5
4E
330
49
100
AcDbEntity
  8
Layer 1
 62
     1
420
 16711680
370
    35
100
AcDbVertex
100
AcDb2dVertex
 10
197.5608096905656
 20
-219.1343533784871
 30
0.0
  0
SEQEND
  5
4F
330
49
100
AcDbEntity
  8
Layer 1
 62
     1
420
 16711680
370
    35
  0
POLYLINE
  5
50
330
1F
100
AcDbEntity
  8
Layer 1
 62
     1
420
 16711680
370
    35
100
AcDb2dPolyline
 66
     1
 10
0.0
 20
0.0
 30
0.0
  0
VERTEX
  5
51
330
50
100
AcDbEntity
  8
Layer 1
 62
     1
420
 16711680
370
    35
100
AcDbVertex
100
AcDb2dVertex
 10
500.2404762809554
 20
-249.0595533739091
 30
0.0
  0
VERTEX
  5
52
330
50
100
AcDbEntity
  8
Layer 1
 62
     1
420
 16711680
370
    35
100
AcDbVertex
100
AcDb2dVertex
 10
488.5988096171992
 20
-249.0595533733867
 30
0.0
  0
VERTEX
  5
53
330
50
100
AcDbEntity
  8
Layer 1
 62
     1
420
 16711680
370
    35
100
AcDbVertex
100
AcDb2dVertex
 10
488.5988096170644
 20
-252.0595533726367
 30
0.0
  0
VERTEX
  5
54
330
50
100
AcDbEntity
  8
Layer 1
 62
     1
420
 16711680
370
    35
100
AcDbVertex
100
AcDb2dVertex
 10
500.2404762808206
 20
-252.059553373159
 30
0.0
  0
VERTEX
  5
55
330
50
100
AcDbEntity
  8
Layer 1
 62
     1
420
 16711680
370
    35
100
AcDbVertex
100
AcDb2dVertex
 10
500.2404762809554
 20
-249.0595533739091
 30
0.0
  0
SEQEND
  5
56
330
50
100
AcDbEntity
  8
Layer 1
 62
     1
420
 16711680
370
    35
  0
POLYLINE
  5
57
330
1F
100
AcDbEntity
  8
Layer 1
 62
     1
420
 16711680
370
    35
100
AcDb2dPolyline
 66
     1
 10
0.0
 20
0.0
 30
0.0
  0
VERTEX
  5
58
330
57
100
AcDbEntity
  8
Layer 1
 62
     1
420
 16711680
370
    35
100
AcDbVertex
100
AcDb2dVertex
 10
500.2404762822985
 20
-219.1343533813901
 30
0.0
  0
VERTEX
  5
59
330
57
100
AcDbEntity
  8
Layer 1
 62
     1
420
 16711680
370
    35
100
AcDbVertex
100
AcDb2dVertex
 10
488.5988096185422
 20
-219.1343533808671
 30
0.0
  0
VERTEX
  5
5A
330
57
100
AcDbEntity
  8
Layer 1
 62
     1
420
 16711680
370
    35
100
AcDbVertex
100
AcDb2dVertex
 10
488.5988096184082
 20
-222.1343533801171
 30
0.0
  0
VERTEX
  5
5B
330
57
100
AcDbEntity
  8
Layer 1
 62
     1
420
 16711680
370
    35
100
AcDbVertex
100
AcDb2dVertex
 10
500.2404762821644
 20
-222.1343533806401
 30
0.0
  0
VERTEX
  5
5C
330
57
100
AcDbEntity
  8
Layer 1
 62
     1
420
 16711680
370
    35
100
AcDbVertex
100
AcDb2dVertex
 10
500.2404762822985
 20
-219.1343533813901
 30
0.0
  0
SEQEND
  5
5D
330
57
100
AcDbEntity
  8
Layer 1
 62
     1
420
 16711680
370
    35
  0
MTEXT
  5
5E
330
1F
100
AcDbEntity
  8
Layer 1
 62
     7
420
 16777215
100
AcDbMText
 10
-12.71606275452498
 20
-169.0690621695112
 30
0.0
 40
8.9915999977521
 41
0.0
 46
0.0
 71
     7
 72
     1
  1
\fAxure Handwriting|b1|i0|c0|p34;\W1;0.175 mm Plastic 
 73
     1
 44
1.0
  0
MTEXT
  5
5F
330
1F
100
AcDbEntity
  8
0
100
AcDbMText
 10
0.0
 20
0.0
 30
0.0
 40
0.0
 41
0.0
 46
0.0
 71
     1
 72
     1
  1

 73
     1
 44
1.0
  0
MTEXT
  5
60
330
1F
100
AcDbEntity
  8
Layer 1
 62
     7
420
 16777215
100
AcDbMText
 10
-12.71606275452498
 20
-199.5490277109363
 30
0.0
 40
8.9915999977521
 41
0.0
 46
0.0
 71
     7
 72
     1
  1
\fAxure Handwriting|b1|i0|c0|p34;\W1;6 ups
 73
     1
 44
1.0
  0
SPLINE
  5
61
330
1F
100
AcDbEntity
  8
Layer 1
 62
     1
420
 16711680
370
    35
100
AcDbSpline
210
0.0
220
0.0
230
1.0
 70
    11
 71
     3
 72
    29
 73
    25
 74
     0
 42
0.0000000001
 43
0.0000000001
 12
1.0
 22
0.0
 32
0.0
 13
1.0
 23
0.0
 33
0.0
 40
0.0
 40
0.0
 40
0.0
 40
0.0
 40
1.0
 40
1.0
 40
1.0
 40
2.0
 40
2.0
 40
2.0
 40
3.0
 40
3.0
 40
3.0
 40
4.0
 40
4.0
 40
4.0
 40
5.0
 40
5.0
 40
5.0
 40
6.0
 40
6.0
 40
6.0
 40
7.0
 40
7.0
 40
7.0
 40
8.0
 40
8.0
 40
8.0
 40
8.0
 10
-48.44463691460119
 20
-276.9896967983668
 30
0.0
 10
-48.44463691460119
 20
-276.9896967983668
 30
0.0
 10
-48.44463691460119
 20
-141.9896968321166
 30
0.0
 10
-48.44463691460119
 20
-141.9896968321166
 30
0.0
 10
-48.44463691460119
 20
-86.98969684586694
 30
0.0
 10
-3.444636925851155
 20
-41.98969685711691
 30
0.0
 10
51.55536306039725
 20
-41.98969685711691
 30
0.0
 10
51.55536306039725
 20
-41.98969685711691
 30
0.0
 10
166.5553630316493
 20
-41.98969685711691
 30
0.0
 10
166.5553630316493
 20
-41.98969685711691
 30
0.0
 10
169.3053630309614
 20
-41.98969685711691
 30
0.0
 10
171.5553630303988
 20
-44.23969685655438
 30
0.0
 10
171.5553630303988
 20
-46.98969685586706
 30
0.0
 10
171.5553630303988
 20
-46.98969685586706
 30
0.0
 10
171.5553630303988
 20
-371.9896967746189
 30
0.0
 10
171.5553630303988
 20
-371.9896967746189
 30
0.0
 10
171.5553630303988
 20
-374.7396967739309
 30
0.0
 10
169.305363030962
 20
-376.9896967733658
 30
0.0
 10
166.5553630316493
 20
-376.9896967733658
 30
0.0
 10
166.5553630316493
 20
-376.9896967733658
 30
0.0
 10
51.55536306039725
 20
-376.9896967733658
 30
0.0
 10
51.55536306039725
 20
-376.9896967733658
 30
0.0
 10
-3.444636925851155
 20
-376.9896967733658
 30
0.0
 10
-48.44463691460119
 20
-331.9896967846165
 30
0.0
 10
-48.44463691460119
 20
-276.9896967983668
 30
0.0
  0
POLYLINE
  5
62
330
1F
100
AcDbEntity
  8
Layer 1
 62
     1
420
 16711680
370
    35
100
AcDb2dPolyline
 66
     1
 10
0.0
 20
0.0
 30
0.0
  0
VERTEX
  5
63
330
62
100
AcDbEntity
  8
Layer 1
 62
     1
420
 16711680
370
    35
100
AcDbVertex
100
AcDb2dVertex
 10
158.6279973770649
 20
-360.8295523329609
 30
0.0
  0
VERTEX
  5
64
330
62
100
AcDbEntity
  8
Layer 1
 62
     1
420
 16711680
370
    35
100
AcDbVertex
100
AcDb2dVertex
 10
158.6279973770649
 20
-349.1878856692047
 30
0.0
  0
VERTEX
  5
65
330
62
100
AcDbEntity
  8
Layer 1
 62
     1
420
 16711680
370
    35
100
AcDbVertex
100
AcDb2dVertex
 10
161.6279973763155
 20
-349.1878856692047
 30
0.0
  0
VERTEX
  5
66
330
62
100
AcDbEntity
  8
Layer 1
 62
     1
420
 16711680
370
    35
100
AcDbVertex
100
AcDb2dVertex
 10
161.6279973763155
 20
-360.8295523329609
 30
0.0
  0
VERTEX
  5
67
330
62
100
AcDbEntity
  8
Layer 1
 62
     1
420
 16711680
370
    35
100
AcDbVertex
100
AcDb2dVertex
 10
158.6279973770649
 20
-360.8295523329609
 30
0.0
  0
SEQEND
  5
68
330
62
100
AcDbEntity
  8
Layer 1
 62
     1
420
 16711680
370
    35
  0
POLYLINE
  5
69
330
1F
100
AcDbEntity
  8
Layer 1
 62
     1
420
 16711680
370
    35
100
AcDb2dPolyline
 66
     1
 10
0.0
 20
0.0
 30
0.0
  0
VERTEX
  5
6A
330
69
100
AcDbEntity
  8
Layer 1
 62
     1
420
 16711680
370
    35
100
AcDbVertex
100
AcDb2dVertex
 10
128.7027973845472
 20
-360.8295523329609
 30
0.0
  0
VERTEX
  5
6B
330
69
100
AcDbEntity
  8
Layer 1
 62
     1
420
 16711680
370
    35
100
AcDbVertex
100
AcDb2dVertex
 10
128.7027973845472
 20
-349.1878856692047
 30
0.0
  0
VERTEX
  5
6C
330
69
100
AcDbEntity
  8
Layer 1
 62
     1
420
 16711680
370
    35
100
AcDbVertex
100
AcDb2dVertex
 10
131.7027973837966
 20
-349.1878856692047
 30
0.0
  0
VERTEX
  5
6D
330
69
100
AcDbEntity
  8
Layer 1
 62
     1
420
 16711680
370
    35
100
AcDbVertex
100
AcDb2dVertex
 10
131.7027973837966
 20
-360.8295523329609
 30
0.0
  0
VERTEX
  5
6E
330
69
100
AcDbEntity
  8
Layer 1
 62
     1
420
 16711680
370
    35
100
AcDbVertex
100
AcDb2dVertex
 10
128.7027973845472
 20
-360.8295523329609
 30
0.0
  0
SEQEND
  5
6F
330
69
100
AcDbEntity
  8
Layer 1
 62
     1
420
 16711680
370
    35
  0
POLYLINE
  5
70
330
1F
100
AcDbEntity
  8
Layer 1
 62
     1
420
 16711680
370
    35
100
AcDb2dPolyline
 66
     1
 10
0.0
 20
0.0
 30
0.0
  0
VERTEX
  5
71
330
70
100
AcDbEntity
  8
Layer 1
 62
     1
420
 16711680
370
    35
100
AcDbVertex
100
AcDb2dVertex
 10
158.627997379968
 20
-58.14988574257012
 30
0.0
  0
VERTEX
  5
72
330
70
100
AcDbEntity
  8
Layer 1
 62
     1
420
 16711680
370
    35
100
AcDbVertex
100
AcDb2dVertex
 10
158.6279973794462
 20
-69.79155240632637
 30
0.0
  0
VERTEX
  5
73
330
70
100
AcDbEntity
  8
Layer 1
 62
     1
420
 16711680
370
    35
100
AcDbVertex
100
AcDb2dVertex
 10
161.6279973786962
 20
-69.79155240646112
 30
0.0
  0
VERTEX
  5
74
330
70
100
AcDbEntity
  8
Layer 1
 62
     1
420
 16711680
370
    35
100
AcDbVertex
100
AcDb2dVertex
 10
161.6279973792192
 20
-58.14988574270487
 30
0.0
  0
VERTEX
  5
75
330
70
100
AcDbEntity
  8
Layer 1
 62
     1
420
 16711680
370
    35
100
AcDbVertex
100
AcDb2dVertex
 10
158.627997379968
 20
-58.14988574257012
 30
0.0
  0
SEQEND
  5
76
330
70
100
AcDbEntity
  8
Layer 1
 62
     1
420
 16711680
370
    35
  0
POLYLINE
  5
77
330
1F
100
AcDbEntity
  8
Layer 1
 62
     1
420
 16711680
370
    35
100
AcDb2dPolyline
 66
     1
 10
0.0
 20
0.0
 30
0.0
  0
VERTEX
  5
78
330
77
100
AcDbEntity
  8
Layer 1
 62
     1
420
 16711680
370
    35
100
AcDbVertex
100
AcDb2dVertex
 10
128.7027973874497
 20
-58.14988574122704
 30
0.0
  0
VERTEX
  5
79
330
77
100
AcDbEntity
  8
Layer 1
 62
     1
420
 16711680
370
    35
100
AcDbVertex
100
AcDb2dVertex
 10
128.7027973869273
 20
-69.79155240498329
 30
0.0
  0
VERTEX
  5
7A
330
77
100
AcDbEntity
  8
Layer 1
 62
     1
420
 16711680
370
    35
100
AcDbVertex
100
AcDb2dVertex
 10
131.7027973861773
 20
-69.7915524051174
 30
0.0
  0
VERTEX
  5
7B
330
77
100
AcDbEntity
  8
Layer 1
 62
     1
420
 16711680
370
    35
100
AcDbVertex
100
AcDb2dVertex
 10
131.7027973867003
 20
-58.14988574136115
 30
0.0
  0
VERTEX
  5
7C
330
77
100
AcDbEntity
  8
Layer 1
 62
     1
420
 16711680
370
    35
100
AcDbVertex
100
AcDb2dVertex
 10
128.7027973874497
 20
-58.14988574122704
 30
0.0
  0
SEQEND
  5
7D
330
77
100
AcDbEntity
  8
Layer 1
 62
     1
420
 16711680
370
    35
  0
MTEXT
  5
7E
330
1F
100
AcDbEntity
  8
Layer 1
 62
   197
420
  6696337
100
AcDbMText
 10
258.8371279705182
 20
-75.8324567393291
 30
0.0
 40
14.9859999962535
 41
0.0
 46
0.0
 71
     7
 72
     1
  1
\fMyriad Pro|b0|i0|c0|p34;\W1;Width-564.84mm
 73
     1
 44
1.0
  0
MTEXT
  5
7F
330
1F
100
AcDbEntity
  8
Layer 1
 62
   197
420
  6696337
100
AcDbMText
 10
349.0523375592213
 20
-467.1130898897322
 30
0.0
 40
14.9859999962535
 41
0.0
 46
0.0
 71
     7
 72
     1
  1
\fMyriad Pro|b0|i0|c0|p34;\W1;Height-910.14mm
 73
     1
 44
1.0
  0
SPLINE
  5
80
330
1F
100
AcDbEntity
  8
Layer 1
 62
     1
420
 16711680
370
    35
100
AcDbSpline
210
0.0
220
0.0
230
1.0
 70
    11
 71
     3
 72
    29
 73
    25
 74
     0
 42
0.0000000001
 43
0.0000000001
 12
1.0
 22
0.0
 32
0.0
 13
1.0
 23
0.0
 33
0.0
 40
0.0
 40
0.0
 40
0.0
 40
0.0
 40
1.0
 40
1.0
 40
1.0
 40
2.0
 40
2.0
 40
2.0
 40
3.0
 40
3.0
 40
3.0
 40
4.0
 40
4.0
 40
4.0
 40
5.0
 40
5.0
 40
5.0
 40
6.0
 40
6.0
 40
6.0
 40
7.0
 40
7.0
 40
7.0
 40
8.0
 40
8.0
 40
8.0
 40
8.0
 10
186.5553630266486
 20
-607.122996715833
 30
0.0
 10
186.5553630266486
 20
-607.122996715833
 30
0.0
 10
51.55536306039853
 20
-607.122996715833
 30
0.0
 10
51.55536306039853
 20
-607.122996715833
 30
0.0
 10
-3.444636925851155
 20
-607.122996715833
 30
0.0
 10
-48.44463691460119
 20
-562.1229967270835
 30
0.0
 10
-48.44463691460119
 20
-507.1229967408332
 30
0.0
 10
-48.44463691460119
 20
-507.1229967408332
 30
0.0
 10
-48.44463691460119
 20
-392.1229967695837
 30
0.0
 10
-48.44463691460119
 20
-392.1229967695837
 30
0.0
 10
-48.44463691460119
 20
-389.3729967702717
 30
0.0
 10
-46.19463691516372
 20
-387.1229967708342
 30
0.0
 10
-43.44463691585105
 20
-387.1229967708342
 30
0.0
 10
-43.44463691585105
 20
-387.1229967708342
 30
0.0
 10
281.5553630029002
 20
-387.1229967708342
 30
0.0
 10
281.5553630029002
 20
-387.1229967708342
 30
0.0
 10
284.3053630022122
 20
-387.1229967708342
 30
0.0
 10
286.5553630016477
 20
-389.3729967702704
 30
0.0
 10
286.5553630016477
 20
-392.1229967695837
 30
0.0
 10
286.5553630016477
 20
-392.1229967695837
 30
0.0
 10
286.5553630016477
 20
-507.1229967408332
 30
0.0
 10
286.5553630016477
 20
-507.1229967408332
 30
0.0
 10
286.5553630016477
 20
-562.1229967270835
 30
0.0
 10
241.5553630128977
 20
-607.122996715833
 30
0.0
 10
186.5553630266486
 20
-607.122996715833
 30
0.0
  0
POLYLINE
  5
81
330
1F
100
AcDbEntity
  8
Layer 1
 62
     1
420
 16711680
370
    35
100
AcDb2dPolyline
 66
     1
 10
0.0
 20
0.0
 30
0.0
  0
VERTEX
  5
82
330
81
100
AcDbEntity
  8
Layer 1
 62
     1
420
 16711680
370
    35
100
AcDbVertex
100
AcDb2dVertex
 10
270.3952185612422
 20
-400.0503624241682
 30
0.0
  0
VERTEX
  5
83
330
81
100
AcDbEntity
  8
Layer 1
 62
     1
420
 16711680
370
    35
100
AcDbVertex
100
AcDb2dVertex
 10
258.7535518974859
 20
-400.0503624241682
 30
0.0
  0
VERTEX
  5
84
330
81
100
AcDbEntity
  8
Layer 1
 62
     1
420
 16711680
370
    35
100
AcDbVertex
100
AcDb2dVertex
 10
258.7535518974859
 20
-397.0503624249169
 30
0.0
  0
VERTEX
  5
85
330
81
100
AcDbEntity
  8
Layer 1
 62
     1
420
 16711680
370
    35
100
AcDbVertex
100
AcDb2dVertex
 10
270.3952185612422
 20
-397.0503624249169
 30
0.0
  0
VERTEX
  5
86
330
81
100
AcDbEntity
  8
Layer 1
 62
     1
420
 16711680
370
    35
100
AcDbVertex
100
AcDb2dVertex
 10
270.3952185612422
 20
-400.0503624241682
 30
0.0
  0
SEQEND
  5
87
330
81
100
AcDbEntity
  8
Layer 1
 62
     1
420
 16711680
370
    35
  0
POLYLINE
  5
88
330
1F
100
AcDbEntity
  8
Layer 1
 62
     1
420
 16711680
370
    35
100
AcDb2dPolyline
 66
     1
 10
0.0
 20
0.0
 30
0.0
  0
VERTEX
  5
89
330
88
100
AcDbEntity
  8
Layer 1
 62
     1
420
 16711680
370
    35
100
AcDbVertex
100
AcDb2dVertex
 10
270.3952185612422
 20
-429.9755624166858
 30
0.0
  0
VERTEX
  5
8A
330
88
100
AcDbEntity
  8
Layer 1
 62
     1
420
 16711680
370
    35
100
AcDbVertex
100
AcDb2dVertex
 10
258.7535518974859
 20
-429.9755624166858
 30
0.0
  0
VERTEX
  5
8B
330
88
100
AcDbEntity
  8
Layer 1
 62
     1
420
 16711680
370
    35
100
AcDbVertex
100
AcDb2dVertex
 10
258.7535518974859
 20
-426.9755624174371
 30
0.0
  0
VERTEX
  5
8C
330
88
100
AcDbEntity
  8
Layer 1
 62
     1
420
 16711680
370
    35
100
AcDbVertex
100
AcDb2dVertex
 10
270.3952185612422
 20
-426.9755624174371
 30
0.0
  0
VERTEX
  5
8D
330
88
100
AcDbEntity
  8
Layer 1
 62
     1
420
 16711680
370
    35
100
AcDbVertex
100
AcDb2dVertex
 10
270.3952185612422
 20
-429.9755624166858
 30
0.0
  0
SEQEND
  5
8E
330
88
100
AcDbEntity
  8
Layer 1
 62
     1
420
 16711680
370
    35
  0
POLYLINE
  5
8F
330
1F
100
AcDbEntity
  8
Layer 1
 62
     1
420
 16711680
370
    35
100
AcDb2dPolyline
 66
     1
 10
0.0
 20
0.0
 30
0.0
  0
VERTEX
  5
90
330
8F
100
AcDbEntity
  8
Layer 1
 62
     1
420
 16711680
370
    35
100
AcDbVertex
100
AcDb2dVertex
 10
-32.28444802914799
 20
-400.0503624212638
 30
0.0
  0
VERTEX
  5
91
330
8F
100
AcDbEntity
  8
Layer 1
 62
     1
420
 16711680
370
    35
100
AcDbVertex
100
AcDb2dVertex
 10
-20.64278136539174
 20
-400.0503624217861
 30
0.0
  0
VERTEX
  5
92
330
8F
100
AcDbEntity
  8
Layer 1
 62
     1
420
 16711680
370
    35
100
AcDbVertex
100
AcDb2dVertex
 10
-20.64278136525698
 20
-397.0503624225362
 30
0.0
  0
VERTEX
  5
93
330
8F
100
AcDbEntity
  8
Layer 1
 62
     1
420
 16711680
370
    35
100
AcDbVertex
100
AcDb2dVertex
 10
-32.28444802901323
 20
-397.0503624220138
 30
0.0
  0
VERTEX
  5
94
330
8F
100
AcDbEntity
  8
Layer 1
 62
     1
420
 16711680
370
    35
100
AcDbVertex
100
AcDb2dVertex
 10
-32.28444802914799
 20
-400.0503624212638
 30
0.0
  0
SEQEND
  5
95
330
8F
100
AcDbEntity
  8
Layer 1
 62
     1
420
 16711680
370
    35
  0
POLYLINE
  5
96
330
1F
100
AcDbEntity
  8
Layer 1
 62
     1
420
 16711680
370
    35
100
AcDb2dPolyline
 66
     1
 10
0.0
 20
0.0
 30
0.0
  0
VERTEX
  5
97
330
96
100
AcDbEntity
  8
Layer 1
 62
     1
420
 16711680
370
    35
100
AcDbVertex
100
AcDb2dVertex
 10
-32.28444803049106
 20
-429.9755624137828
 30
0.0
  0
VERTEX
  5
98
330
96
100
AcDbEntity
  8
Layer 1
 62
     1
420
 16711680
370
    35
100
AcDbVertex
100
AcDb2dVertex
 10
-20.64278136673481
 20
-429.9755624143057
 30
0.0
  0
VERTEX
  5
99
330
96
100
AcDbEntity
  8
Layer 1
 62
     1
420
 16711680
370
    35
100
AcDbVertex
100
AcDb2dVertex
 10
-20.6427813666007
 20
-426.9755624150558
 30
0.0
  0
VERTEX
  5
9A
330
96
100
AcDbEntity
  8
Layer 1
 62
     1
420
 16711680
370
    35
100
AcDbVertex
100
AcDb2dVertex
 10
-32.28444803035695
 20
-426.9755624145328
 30
0.0
  0
VERTEX
  5
9B
330
96
100
AcDbEntity
  8
Layer 1
 62
     1
420
 16711680
370
    35
100
AcDbVertex
100
AcDb2dVertex
 10
-32.28444803049106
 20
-429.9755624137828
 30
0.0
  0
SEQEND
  5
9C
330
96
100
AcDbEntity
  8
Layer 1
 62
     1
420
 16711680
370
    35
  0
SPLINE
  5
9D
330
1F
100
AcDbEntity
  8
Layer 1
 62
     1
420
 16711680
370
    35
100
AcDbSpline
210
0.0
220
0.0
230
1.0
 70
    11
 71
     3
 72
    29
 73
    25
 74
     0
 42
0.0000000001
 43
0.0000000001
 12
1.0
 22
0.0
 32
0.0
 13
1.0
 23
0.0
 33
0.0
 40
0.0
 40
0.0
 40
0.0
 40
0.0
 40
1.0
 40
1.0
 40
1.0
 40
2.0
 40
2.0
 40
2.0
 40
3.0
 40
3.0
 40
3.0
 40
4.0
 40
4.0
 40
4.0
 40
5.0
 40
5.0
 40
5.0
 40
6.0
 40
6.0
 40
6.0
 40
7.0
 40
7.0
 40
7.0
 40
8.0
 40
8.0
 40
8.0
 40
8.0
 10
516.4006651664087
 20
-372.1202189968061
 30
0.0
 10
516.4006651664087
 20
-372.1202189968061
 30
0.0
 10
516.4006651664087
 20
-507.1202189630562
 30
0.0
 10
516.4006651664087
 20
-507.1202189630562
 30
0.0
 10
516.4006651664087
 20
-562.1202189493059
 30
0.0
 10
471.4006651776586
 20
-607.1202189380559
 30
0.0
 10
416.4006651914102
 20
-607.1202189380559
 30
0.0
 10
416.4006651914102
 20
-607.1202189380559
 30
0.0
 10
301.4006652201581
 20
-607.1202189380559
 30
0.0
 10
301.4006652201581
 20
-607.1202189380559
 30
0.0
 10
298.6506652208461
 20
-607.1202189380559
 30
0.0
 10
296.4006652214086
 20
-604.8702189386185
 30
0.0
 10
296.4006652214086
 20
-602.1202189393058
 30
0.0
 10
296.4006652214086
 20
-602.1202189393058
 30
0.0
 10
296.4006652214086
 20
-277.120219020554
 30
0.0
 10
296.4006652214086
 20
-277.120219020554
 30
0.0
 10
296.4006652214086
 20
-274.370219021242
 30
0.0
 10
298.6506652208454
 20
-272.120219021807
 30
0.0
 10
301.4006652201581
 20
-272.120219021807
 30
0.0
 10
301.4006652201581
 20
-272.120219021807
 30
0.0
 10
416.4006651914102
 20
-272.120219021807
 30
0.0
 10
416.4006651914102
 20
-272.120219021807
 30
0.0
 10
471.4006651776586
 20
-272.120219021807
 30
0.0
 10
516.4006651664087
 20
-317.1202190105564
 30
0.0
 10
516.4006651664087
 20
-372.1202189968061
 30
0.0
  0
POLYLINE
  5
9E
330
1F
100
AcDbEntity
  8
Layer 1
 62
     1
420
 16711680
370
    35
100
AcDb2dPolyline
 66
     1
 10
0.0
 20
0.0
 30
0.0
  0
VERTEX
  5
9F
330
9E
100
AcDbEntity
  8
Layer 1
 62
     1
420
 16711680
370
    35
100
AcDbVertex
100
AcDb2dVertex
 10
309.3280308747425
 20
-288.2803634622119
 30
0.0
  0
VERTEX
  5
A0
330
9E
100
AcDbEntity
  8
Layer 1
 62
     1
420
 16711680
370
    35
100
AcDbVertex
100
AcDb2dVertex
 10
309.3280308747425
 20
-299.9220301259682
 30
0.0
  0
VERTEX
  5
A1
330
9E
100
AcDbEntity
  8
Layer 1
 62
     1
420
 16711680
370
    35
100
AcDbVertex
100
AcDb2dVertex
 10
306.3280308754919
 20
-299.9220301259682
 30
0.0
  0
VERTEX
  5
A2
330
9E
100
AcDbEntity
  8
Layer 1
 62
     1
420
 16711680
370
    35
100
AcDbVertex
100
AcDb2dVertex
 10
306.3280308754919
 20
-288.2803634622119
 30
0.0
  0
VERTEX
  5
A3
330
9E
100
AcDbEntity
  8
Layer 1
 62
     1
420
 16711680
370
    35
100
AcDbVertex
100
AcDb2dVertex
 10
309.3280308747425
 20
-288.2803634622119
 30
0.0
  0
SEQEND
  5
A4
330
9E
100
AcDbEntity
  8
Layer 1
 62
     1
420
 16711680
370
    35
  0
POLYLINE
  5
A5
330
1F
100
AcDbEntity
  8
Layer 1
 62
     1
420
 16711680
370
    35
100
AcDb2dPolyline
 66
     1
 10
0.0
 20
0.0
 30
0.0
  0
VERTEX
  5
A6
330
A5
100
AcDbEntity
  8
Layer 1
 62
     1
420
 16711680
370
    35
100
AcDbVertex
100
AcDb2dVertex
 10
339.2532308672602
 20
-288.2803634622119
 30
0.0
  0
VERTEX
  5
A7
330
A5
100
AcDbEntity
  8
Layer 1
 62
     1
420
 16711680
370
    35
100
AcDbVertex
100
AcDb2dVertex
 10
339.2532308672602
 20
-299.9220301259682
 30
0.0
  0
VERTEX
  5
A8
330
A5
100
AcDbEntity
  8
Layer 1
 62
     1
420
 16711680
370
    35
100
AcDbVertex
100
AcDb2dVertex
 10
336.2532308680109
 20
-299.9220301259682
 30
0.0
  0
VERTEX
  5
A9
330
A5
100
AcDbEntity
  8
Layer 1
 62
     1
420
 16711680
370
    35
100
AcDbVertex
100
AcDb2dVertex
 10
336.2532308680109
 20
-288.2803634622119
 30
0.0
  0
VERTEX
  5
AA
330
A5
100
AcDbEntity
  8
Layer 1
 62
     1
420
 16711680
370
    35
100
AcDbVertex
100
AcDb2dVertex
 10
339.2532308672602
 20
-288.2803634622119
 30
0.0
  0
SEQEND
  5
AB
330
A5
100
AcDbEntity
  8
Layer 1
 62
     1
420
 16711680
370
    35
  0
POLYLINE
  5
AC
330
1F
100
AcDbEntity
  8
Layer 1
 62
     1
420
 16711680
370
    35
100
AcDb2dPolyline
 66
     1
 10
0.0
 20
0.0
 30
0.0
  0
VERTEX
  5
AD
330
AC
100
AcDbEntity
  8
Layer 1
 62
     1
420
 16711680
370
    35
100
AcDbVertex
100
AcDb2dVertex
 10
309.3280308718395
 20
-590.9600300526027
 30
0.0
  0
VERTEX
  5
AE
330
AC
100
AcDbEntity
  8
Layer 1
 62
     1
420
 16711680
370
    35
100
AcDbVertex
100
AcDb2dVertex
 10
309.3280308723612
 20
-579.3183633888465
 30
0.0
  0
VERTEX
  5
AF
330
AC
100
AcDbEntity
  8
Layer 1
 62
     1
420
 16711680
370
    35
100
AcDbVertex
100
AcDb2dVertex
 10
306.3280308731112
 20
-579.3183633887118
 30
0.0
  0
VERTEX
  5
B0
330
AC
100
AcDbEntity
  8
Layer 1
 62
     1
420
 16711680
370
    35
100
AcDbVertex
100
AcDb2dVertex
 10
306.3280308725882
 20
-590.960030052468
 30
0.0
  0
VERTEX
  5
B1
330
AC
100
AcDbEntity
  8
Layer 1
 62
     1
420
 16711680
370
    35
100
AcDbVertex
100
AcDb2dVertex
 10
309.3280308718395
 20
-590.9600300526027
 30
0.0
  0
SEQEND
  5
B2
330
AC
100
AcDbEntity
  8
Layer 1
 62
     1
420
 16711680
370
    35
  0
POLYLINE
  5
B3
330
1F
100
AcDbEntity
  8
Layer 1
 62
     1
420
 16711680
370
    35
100
AcDb2dPolyline
 66
     1
 10
0.0
 20
0.0
 30
0.0
  0
VERTEX
  5
B4
330
B3
100
AcDbEntity
  8
Layer 1
 62
     1
420
 16711680
370
    35
100
AcDbVertex
100
AcDb2dVertex
 10
339.2532308643578
 20
-590.9600300539458
 30
0.0
  0
VERTEX
  5
B5
330
B3
100
AcDbEntity
  8
Layer 1
 62
     1
420
 16711680
370
    35
100
AcDbVertex
100
AcDb2dVertex
 10
339.2532308648801
 20
-579.3183633901896
 30
0.0
  0
VERTEX
  5
B6
330
B3
100
AcDbEntity
  8
Layer 1
 62
     1
420
 16711680
370
    35
100
AcDbVertex
100
AcDb2dVertex
 10
336.2532308656301
 20
-579.3183633900554
 30
0.0
  0
VERTEX
  5
B7
330
B3
100
AcDbEntity
  8
Layer 1
 62
     1
420
 16711680
370
    35
100
AcDbVertex
100
AcDb2dVertex
 10
336.2532308651072
 20
-590.9600300538117
 30
0.0
  0
VERTEX
  5
B8
330
B3
100
AcDbEntity
  8
Layer 1
 62
     1
420
 16711680
370
    35
100
AcDbVertex
100
AcDb2dVertex
 10
339.2532308643578
 20
-590.9600300539458
 30
0.0
  0
SEQEND
  5
B9
330
B3
100
AcDbEntity
  8
Layer 1
 62
     1
420
 16711680
370
    35
  0
SPLINE
  5
BA
330
1F
100
AcDbEntity
  8
Layer 1
 62
     1
420
 16711680
370
    35
100
AcDbSpline
210
0.0
220
0.0
230
1.0
 70
    11
 71
     3
 72
    29
 73
    25
 74
     0
 42
0.0000000001
 43
0.0000000001
 12
1.0
 22
0.0
 32
0.0
 13
1.0
 23
0.0
 33
0.0
 40
0.0
 40
0.0
 40
0.0
 40
0.0
 40
1.0
 40
1.0
 40
1.0
 40
2.0
 40
2.0
 40
2.0
 40
3.0
 40
3.0
 40
3.0
 40
4.0
 40
4.0
 40
4.0
 40
5.0
 40
5.0
 40
5.0
 40
6.0
 40
6.0
 40
6.0
 40
7.0
 40
7.0
 40
7.0
 40
8.0
 40
8.0
 40
8.0
 40
8.0
 10
281.4006652251591
 20
-617.1230689355559
 30
0.0
 10
281.4006652251591
 20
-617.1230689355559
 30
0.0
 10
416.4006651914089
 20
-617.1230689355559
 30
0.0
 10
416.4006651914089
 20
-617.1230689355559
 30
0.0
 10
471.4006651776586
 20
-617.1230689355559
 30
0.0
 10
516.4006651664087
 20
-662.1230689243052
 30
0.0
 10
516.4006651664087
 20
-717.1230689105563
 30
0.0
 10
516.4006651664087
 20
-717.1230689105563
 30
0.0
 10
516.4006651664087
 20
-832.1230688818051
 30
0.0
 10
516.4006651664087
 20
-832.1230688818051
 30
0.0
 10
516.4006651664087
 20
-834.8730688811172
 30
0.0
 10
514.1506651669712
 20
-837.1230688805547
 30
0.0
 10
511.4006651676585
 20
-837.1230688805547
 30
0.0
 10
511.4006651676585
 20
-837.1230688805547
 30
0.0
 10
186.4006652489076
 20
-837.1230688805547
 30
0.0
 10
186.4006652489076
 20
-837.1230688805547
 30
0.0
 10
183.6506652495956
 20
-837.1230688805547
 30
0.0
 10
181.40066525016
 20
-834.8730688811185
 30
0.0
 10
181.40066525016
 20
-832.1230688818051
 30
0.0
 10
181.40066525016
 20
-832.1230688818051
 30
0.0
 10
181.40066525016
 20
-717.1230689105563
 30
0.0
 10
181.40066525016
 20
-717.1230689105563
 30
0.0
 10
181.40066525016
 20
-662.1230689243052
 30
0.0
 10
226.4006652389101
 20
-617.1230689355559
 30
0.0
 10
281.4006652251591
 20
-617.1230689355559
 30
0.0
  0
POLYLINE
  5
BB
330
1F
100
AcDbEntity
  8
Layer 1
 62
     1
420
 16711680
370
    35
100
AcDb2dPolyline
 66
     1
 10
0.0
 20
0.0
 30
0.0
  0
VERTEX
  5
BC
330
BB
100
AcDbEntity
  8
Layer 1
 62
     1
420
 16711680
370
    35
100
AcDbVertex
100
AcDb2dVertex
 10
197.5608096905656
 20
-824.1957032272207
 30
0.0
  0
VERTEX
  5
BD
330
BB
100
AcDbEntity
  8
Layer 1
 62
     1
420
 16711680
370
    35
100
AcDbVertex
100
AcDb2dVertex
 10
209.2024763543218
 20
-824.1957032272207
 30
0.0
  0
VERTEX
  5
BE
330
BB
100
AcDbEntity
  8
Layer 1
 62
     1
420
 16711680
370
    35
100
AcDbVertex
100
AcDb2dVertex
 10
209.2024763543218
 20
-827.1957032264719
 30
0.0
  0
VERTEX
  5
BF
330
BB
100
AcDbEntity
  8
Layer 1
 62
     1
420
 16711680
370
    35
100
AcDbVertex
100
AcDb2dVertex
 10
197.5608096905656
 20
-827.1957032264719
 30
0.0
  0
VERTEX
  5
C0
330
BB
100
AcDbEntity
  8
Layer 1
 62
     1
420
 16711680
370
    35
100
AcDbVertex
100
AcDb2dVertex
 10
197.5608096905656
 20
-824.1957032272207
 30
0.0
  0
SEQEND
  5
C1
330
BB
100
AcDbEntity
  8
Layer 1
 62
     1
420
 16711680
370
    35
  0
POLYLINE
  5
C2
330
1F
100
AcDbEntity
  8
Layer 1
 62
     1
420
 16711680
370
    35
100
AcDb2dPolyline
 66
     1
 10
0.0
 20
0.0
 30
0.0
  0
VERTEX
  5
C3
330
C2
100
AcDbEntity
  8
Layer 1
 62
     1
420
 16711680
370
    35
100
AcDbVertex
100
AcDb2dVertex
 10
197.5608096905656
 20
-794.2705032347037
 30
0.0
  0
VERTEX
  5
C4
330
C2
100
AcDbEntity
  8
Layer 1
 62
     1
420
 16711680
370
    35
100
AcDbVertex
100
AcDb2dVertex
 10
209.2024763543218
 20
-794.2705032347037
 30
0.0
  0
VERTEX
  5
C5
330
C2
100
AcDbEntity
  8
Layer 1
 62
     1
420
 16711680
370
    35
100
AcDbVertex
100
AcDb2dVertex
 10
209.2024763543218
 20
-797.2705032339524
 30
0.0
  0
VERTEX
  5
C6
330
C2
100
AcDbEntity
  8
Layer 1
 62
     1
420
 16711680
370
    35
100
AcDbVertex
100
AcDb2dVertex
 10
197.5608096905656
 20
-797.2705032339524
 30
0.0
  0
VERTEX
  5
C7
330
C2
100
AcDbEntity
  8
Layer 1
 62
     1
420
 16711680
370
    35
100
AcDbVertex
100
AcDb2dVertex
 10
197.5608096905656
 20
-794.2705032347037
 30
0.0
  0
SEQEND
  5
C8
330
C2
100
AcDbEntity
  8
Layer 1
 62
     1
420
 16711680
370
    35
  0
POLYLINE
  5
C9
330
1F
100
AcDbEntity
  8
Layer 1
 62
     1
420
 16711680
370
    35
100
AcDb2dPolyline
 66
     1
 10
0.0
 20
0.0
 30
0.0
  0
VERTEX
  5
CA
330
C9
100
AcDbEntity
  8
Layer 1
 62
     1
420
 16711680
370
    35
100
AcDbVertex
100
AcDb2dVertex
 10
500.2404762809554
 20
-824.195703230125
 30
0.0
  0
VERTEX
  5
CB
330
C9
100
AcDbEntity
  8
Layer 1
 62
     1
420
 16711680
370
    35
100
AcDbVertex
100
AcDb2dVertex
 10
488.5988096171992
 20
-824.1957032296027
 30
0.0
  0
VERTEX
  5
CC
330
C9
100
AcDbEntity
  8
Layer 1
 62
     1
420
 16711680
370
    35
100
AcDbVertex
100
AcDb2dVertex
 10
488.5988096170644
 20
-827.1957032288526
 30
0.0
  0
VERTEX
  5
CD
330
C9
100
AcDbEntity
  8
Layer 1
 62
     1
420
 16711680
370
    35
100
AcDbVertex
100
AcDb2dVertex
 10
500.2404762808206
 20
-827.195703229375
 30
0.0
  0
VERTEX
  5
CE
330
C9
100
AcDbEntity
  8
Layer 1
 62
     1
420
 16711680
370
    35
100
AcDbVertex
100
AcDb2dVertex
 10
500.2404762809554
 20
-824.195703230125
 30
0.0
  0
SEQEND
  5
CF
330
C9
100
AcDbEntity
  8
Layer 1
 62
     1
420
 16711680
370
    35
  0
POLYLINE
  5
D0
330
1F
100
AcDbEntity
  8
Layer 1
 62
     1
420
 16711680
370
    35
100
AcDb2dPolyline
 66
     1
 10
0.0
 20
0.0
 30
0.0
  0
VERTEX
  5
D1
330
D0
100
AcDbEntity
  8
Layer 1
 62
     1
420
 16711680
370
    35
100
AcDbVertex
100
AcDb2dVertex
 10
500.2404762822985
 20
-794.2705032376067
 30
0.0
  0
VERTEX
  5
D2
330
D0
100
AcDbEntity
  8
Layer 1
 62
     1
420
 16711680
370
    35
100
AcDbVertex
100
AcDb2dVertex
 10
488.5988096185422
 20
-794.2705032370831
 30
0.0
  0
VERTEX
  5
D3
330
D0
100
AcDbEntity
  8
Layer 1
 62
     1
420
 16711680
370
    35
100
AcDbVertex
100
AcDb2dVertex
 10
488.5988096184082
 20
-797.2705032363331
 30
0.0
  0
VERTEX
  5
D4
330
D0
100
AcDbEntity
  8
Layer 1
 62
     1
420
 16711680
370
    35
100
AcDbVertex
100
AcDb2dVertex
 10
500.2404762821644
 20
-797.2705032368567
 30
0.0
  0
VERTEX
  5
D5
330
D0
100
AcDbEntity
  8
Layer 1
 62
     1
420
 16711680
370
    35
100
AcDbVertex
100
AcDb2dVertex
 10
500.2404762822985
 20
-794.2705032376067
 30
0.0
  0
SEQEND
  5
D6
330
D0
100
AcDbEntity
  8
Layer 1
 62
     1
420
 16711680
370
    35
  0
SPLINE
  5
D7
330
1F
100
AcDbEntity
  8
Layer 1
 62
     1
420
 16711680
370
    35
100
AcDbSpline
210
0.0
220
0.0
230
1.0
 70
    11
 71
     3
 72
    29
 73
    25
 74
     0
 42
0.0000000001
 43
0.0000000001
 12
1.0
 22
0.0
 32
0.0
 13
1.0
 23
0.0
 33
0.0
 40
0.0
 40
0.0
 40
0.0
 40
0.0
 40
1.0
 40
1.0
 40
1.0
 40
2.0
 40
2.0
 40
2.0
 40
3.0
 40
3.0
 40
3.0
 40
4.0
 40
4.0
 40
4.0
 40
5.0
 40
5.0
 40
5.0
 40
6.0
 40
6.0
 40
6.0
 40
7.0
 40
7.0
 40
7.0
 40
8.0
 40
8.0
 40
8.0
 40
8.0
 10
-48.44463691460119
 20
-852.1258466545827
 30
0.0
 10
-48.44463691460119
 20
-852.1258466545827
 30
0.0
 10
-48.44463691460119
 20
-717.1258466883332
 30
0.0
 10
-48.44463691460119
 20
-717.1258466883332
 30
0.0
 10
-48.44463691460119
 20
-662.1258467020835
 30
0.0
 10
-3.444636925851155
 20
-617.1258467133329
 30
0.0
 10
51.55536306039725
 20
-617.1258467133329
 30
0.0
 10
51.55536306039725
 20
-617.1258467133329
 30
0.0
 10
166.5553630316493
 20
-617.1258467133329
 30
0.0
 10
166.5553630316493
 20
-617.1258467133329
 30
0.0
 10
169.3053630309614
 20
-617.1258467133329
 30
0.0
 10
171.5553630303988
 20
-619.3758467127703
 30
0.0
 10
171.5553630303988
 20
-622.1258467120837
 30
0.0
 10
171.5553630303988
 20
-622.1258467120837
 30
0.0
 10
171.5553630303988
 20
-947.1258466308349
 30
0.0
 10
171.5553630303988
 20
-947.1258466308349
 30
0.0
 10
171.5553630303988
 20
-949.875846630147
 30
0.0
 10
169.305363030962
 20
-952.1258466295818
 30
0.0
 10
166.5553630316493
 20
-952.1258466295818
 30
0.0
 10
166.5553630316493
 20
-952.1258466295818
 30
0.0
 10
51.55536306039725
 20
-952.1258466295818
 30
0.0
 10
51.55536306039725
 20
-952.1258466295818
 30
0.0
 10
-3.444636925851155
 20
-952.1258466295818
 30
0.0
 10
-48.44463691460119
 20
-907.1258466408324
 30
0.0
 10
-48.44463691460119
 20
-852.1258466545827
 30
0.0
  0
POLYLINE
  5
D8
330
1F
100
AcDbEntity
  8
Layer 1
 62
     1
420
 16711680
370
    35
100
AcDb2dPolyline
 66
     1
 10
0.0
 20
0.0
 30
0.0
  0
VERTEX
  5
D9
330
D8
100
AcDbEntity
  8
Layer 1
 62
     1
420
 16711680
370
    35
100
AcDbVertex
100
AcDb2dVertex
 10
158.6279973770649
 20
-935.9657021891769
 30
0.0
  0
VERTEX
  5
DA
330
D8
100
AcDbEntity
  8
Layer 1
 62
     1
420
 16711680
370
    35
100
AcDbVertex
100
AcDb2dVertex
 10
158.6279973770649
 20
-924.3240355254206
 30
0.0
  0
VERTEX
  5
DB
330
D8
100
AcDbEntity
  8
Layer 1
 62
     1
420
 16711680
370
    35
100
AcDbVertex
100
AcDb2dVertex
 10
161.6279973763155
 20
-924.3240355254206
 30
0.0
  0
VERTEX
  5
DC
330
D8
100
AcDbEntity
  8
Layer 1
 62
     1
420
 16711680
370
    35
100
AcDbVertex
100
AcDb2dVertex
 10
161.6279973763155
 20
-935.9657021891769
 30
0.0
  0
VERTEX
  5
DD
330
D8
100
AcDbEntity
  8
Layer 1
 62
     1
420
 16711680
370
    35
100
AcDbVertex
100
AcDb2dVertex
 10
158.6279973770649
 20
-935.9657021891769
 30
0.0
  0
SEQEND
  5
DE
330
D8
100
AcDbEntity
  8
Layer 1
 62
     1
420
 16711680
370
    35
  0
POLYLINE
  5
DF
330
1F
100
AcDbEntity
  8
Layer 1
 62
     1
420
 16711680
370
    35
100
AcDb2dPolyline
 66
     1
 10
0.0
 20
0.0
 30
0.0
  0
VERTEX
  5
E0
330
DF
100
AcDbEntity
  8
Layer 1
 62
     1
420
 16711680
370
    35
100
AcDbVertex
100
AcDb2dVertex
 10
128.7027973845472
 20
-935.9657021891769
 30
0.0
  0
VERTEX
  5
E1
330
DF
100
AcDbEntity
  8
Layer 1
 62
     1
420
 16711680
370
    35
100
AcDbVertex
100
AcDb2dVertex
 10
128.7027973845472
 20
-924.3240355254206
 30
0.0
  0
VERTEX
  5
E2
330
DF
100
AcDbEntity
  8
Layer 1
 62
     1
420
 16711680
370
    35
100
AcDbVertex
100
AcDb2dVertex
 10
131.7027973837966
 20
-924.3240355254206
 30
0.0
  0
VERTEX
  5
E3
330
DF
100
AcDbEntity
  8
Layer 1
 62
     1
420
 16711680
370
    35
100
AcDbVertex
100
AcDb2dVertex
 10
131.7027973837966
 20
-935.9657021891769
 30
0.0
  0
VERTEX
  5
E4
330
DF
100
AcDbEntity
  8
Layer 1
 62
     1
420
 16711680
370
    35
100
AcDbVertex
100
AcDb2dVertex
 10
128.7027973845472
 20
-935.9657021891769
 30
0.0
  0
SEQEND
  5
E5
330
DF
100
AcDbEntity
  8
Layer 1
 62
     1
420
 16711680
370
    35
  0
POLYLINE
  5
E6
330
1F
100
AcDbEntity
  8
Layer 1
 62
     1
420
 16711680
370
    35
100
AcDb2dPolyline
 66
     1
 10
0.0
 20
0.0
 30
0.0
  0
VERTEX
  5
E7
330
E6
100
AcDbEntity
  8
Layer 1
 62
     1
420
 16711680
370
    35
100
AcDbVertex
100
AcDb2dVertex
 10
158.627997379968
 20
-633.286035598786
 30
0.0
  0
VERTEX
  5
E8
330
E6
100
AcDbEntity
  8
Layer 1
 62
     1
420
 16711680
370
    35
100
AcDbVertex
100
AcDb2dVertex
 10
158.6279973794462
 20
-644.9277022625423
 30
0.0
  0
VERTEX
  5
E9
330
E6
100
AcDbEntity
  8
Layer 1
 62
     1
420
 16711680
370
    35
100
AcDbVertex
100
AcDb2dVertex
 10
161.6279973786962
 20
-644.9277022626771
 30
0.0
  0
VERTEX
  5
EA
330
E6
100
AcDbEntity
  8
Layer 1
 62
     1
420
 16711680
370
    35
100
AcDbVertex
100
AcDb2dVertex
 10
161.6279973792192
 20
-633.2860355989209
 30
0.0
  0
VERTEX
  5
EB
330
E6
100
AcDbEntity
  8
Layer 1
 62
     1
420
 16711680
370
    35
100
AcDbVertex
100
AcDb2dVertex
 10
158.627997379968
 20
-633.286035598786
 30
0.0
  0
SEQEND
  5
EC
330
E6
100
AcDbEntity
  8
Layer 1
 62
     1
420
 16711680
370
    35
  0
POLYLINE
  5
ED
330
1F
100
AcDbEntity
  8
Layer 1
 62
     1
420
 16711680
370
    35
100
AcDb2dPolyline
 66
     1
 10
0.0
 20
0.0
 30
0.0
  0
VERTEX
  5
EE
330
ED
100
AcDbEntity
  8
Layer 1
 62
     1
420
 16711680
370
    35
100
AcDbVertex
100
AcDb2dVertex
 10
128.7027973874497
 20
-633.2860355974436
 30
0.0
  0
VERTEX
  5
EF
330
ED
100
AcDbEntity
  8
Layer 1
 62
     1
420
 16711680
370
    35
100
AcDbVertex
100
AcDb2dVertex
 10
128.7027973869273
 20
-644.9277022611999
 30
0.0
  0
VERTEX
  5
F0
330
ED
100
AcDbEntity
  8
Layer 1
 62
     1
420
 16711680
370
    35
100
AcDbVertex
100
AcDb2dVertex
 10
131.7027973861773
 20
-644.9277022613334
 30
0.0
  0
VERTEX
  5
F1
330
ED
100
AcDbEntity
  8
Layer 1
 62
     1
420
 16711680
370
    35
100
AcDbVertex
100
AcDb2dVertex
 10
131.7027973867003
 20
-633.2860355975771
 30
0.0
  0
VERTEX
  5
F2
330
ED
100
AcDbEntity
  8
Layer 1
 62
     1
420
 16711680
370
    35
100
AcDbVertex
100
AcDb2dVertex
 10
128.7027973874497
 20
-633.2860355974436
 30
0.0
  0
SEQEND
  5
F3
330
ED
100
AcDbEntity
  8
Layer 1
 62
     1
420
 16711680
370
    35
  0
INSERT
  5
F6
330
1F
100
AcDbEntity
  8
Layer 2
100
AcDbBlockReference
  2
block 2
 10
0.0
 20
0.0
 30
0.0
  0
INSERT
  5
FB
330
1F
100
AcDbEntity
  8
Layer 2
100
AcDbBlockReference
  2
block 3
 10
0.0
 20
0.0
 30
0.0
  0
INSERT
  5
100
330
1F
100
AcDbEntity
  8
Layer 2
100
AcDbBlockReference
  2
block 4
 10
0.0
 20
0.0
 30
0.0
  0
INSERT
  5
105
330
1F
100
AcDbEntity
  8
Layer 2
100
AcDbBlockReference
  2
block 5
 10
0.0
 20
0.0
 30
0.0
  0
INSERT
  5
10A
330
1F
100
AcDbEntity
  8
Layer 2
100
AcDbBlockReference
  2
block 6
 10
0.0
 20
0.0
 30
0.0
  0
POLYLINE
  5
10E
330
1F
100
AcDbEntity
  8
Layer 2
 62
   153
420
  4689612
370
    80
100
AcDb2dPolyline
 66
     1
 10
0.0
 20
0.0
 30
0.0
  0
VERTEX
  5
10F
330
10E
100
AcDbEntity
  8
Layer 2
 62
   153
420
  4689612
370
    80
100
AcDbVertex
100
AcDb2dVertex
 10
-55.033333319575
 20
12.34722221913542
 30
0.0
  0
VERTEX
  5
110
330
10E
100
AcDbEntity
  8
Layer 2
 62
   153
420
  4689612
370
    80
100
AcDbVertex
100
AcDb2dVertex
 10
628.6499998428375
 20
12.34722221913542
 30
0.0
  0
SEQEND
  5
111
330
10E
100
AcDbEntity
  8
Layer 2
 62
   153
420
  4689612
370
    80
  0
POLYLINE
  5
112
330
1F
100
AcDbEntity
  8
Layer 2
 62
   153
420
  4689612
370
    80
100
AcDb2dPolyline
 66
     1
 10
0.0
 20
0.0
 30
0.0
  0
VERTEX
  5
113
330
112
100
AcDbEntity
  8
Layer 2
 62
   153
420
  4689612
370
    80
100
AcDbVertex
100
AcDb2dVertex
 10
-38.80555879627317
 20
-11.64166666375497
 30
0.0
  0
VERTEX
  5
114
330
112
100
AcDbEntity
  8
Layer 2
 62
   153
420
  4689612
370
    80
100
AcDbVertex
100
AcDb2dVertex
 10
-73.02500323216243
 20
-11.64166666375497
 30
0.0
  0
SEQEND
  5
115
330
112
100
AcDbEntity
  8
Layer 2
 62
   153
420
  4689612
370
    80
  0
POLYLINE
  5
116
330
1F
100
AcDbEntity
  8
Layer 2
 62
   153
420
  4689612
370
    80
100
AcDb2dPolyline
 66
     1
 10
0.0
 20
0.0
 30
0.0
  0
VERTEX
  5
117
330
116
100
AcDbEntity
  8
Layer 2
 62
   153
420
  4689612
370
    80
100
AcDbVertex
100
AcDb2dVertex
 10
-38.80555879627317
 20
-41.62777776736955
 30
0.0
  0
VERTEX
  5
118
330
116
100
AcDbEntity
  8
Layer 2
 62
   153
420
  4689612
370
    80
100
AcDbVertex
100
AcDb2dVertex
 10
-73.02500323216243
 20
-41.62777776736955
 30
0.0
  0
SEQEND
  5
119
330
116
100
AcDbEntity
  8
Layer 2
 62
   153
420
  4689612
370
    80
  0
POLYLINE
  5
11A
330
1F
100
AcDbEntity
  8
Layer 2
 62
   153
420
  4689612
370
    80
100
AcDb2dPolyline
 66
     1
 10
0.0
 20
0.0
 30
0.0
  0
VERTEX
  5
11B
330
11A
100
AcDbEntity
  8
Layer 2
 62
   153
420
  4689612
370
    80
100
AcDbVertex
100
AcDb2dVertex
 10
-73.02499998174343
 20
-11.64166666375625
 30
0.0
  0
VERTEX
  5
11C
330
11A
100
AcDbEntity
  8
Layer 2
 62
   153
420
  4689612
370
    80
100
AcDbVertex
100
AcDb2dVertex
 10
-73.02499998174343
 20
-41.62777776737084
 30
0.0
  0
SEQEND
  5
11D
330
11A
100
AcDbEntity
  8
Layer 2
 62
   153
420
  4689612
370
    80
  0
POLYLINE
  5
11E
330
1F
100
AcDbEntity
  8
Layer 2
 62
   153
420
  4689612
370
    80
100
AcDb2dPolyline
 66
     1
 10
0.0
 20
0.0
 30
0.0
  0
VERTEX
  5
11F
330
11E
100
AcDbEntity
  8
Layer 2
 62
   153
420
  4689612
370
    80
100
AcDbVertex
100
AcDb2dVertex
 10
120.2972221921479
 20
-64.91111109488334
 30
0.0
  0
VERTEX
  5
120
330
11E
100
AcDbEntity
  8
Layer 2
 62
   153
420
  4689612
370
    80
100
AcDbVertex
100
AcDb2dVertex
 10
97.71944442001458
 20
-64.55833331719376
 30
0.0
  0
SEQEND
  5
121
330
11E
100
AcDbEntity
  8
Layer 2
 62
   153
420
  4689612
370
    80
  0
POLYLINE
  5
122
330
1F
100
AcDbEntity
  8
Layer 2
 62
   153
420
  4689612
370
    80
100
AcDb2dPolyline
 66
     1
 10
0.0
 20
0.0
 30
0.0
  0
VERTEX
  5
123
330
122
100
AcDbEntity
  8
Layer 2
 62
   153
420
  4689612
370
    80
100
AcDbVertex
100
AcDb2dVertex
 10
170.3916666240688
 20
-284.6916665954938
 30
0.0
  0
VERTEX
  5
124
330
122
100
AcDbEntity
  8
Layer 2
 62
   153
420
  4689612
370
    80
100
AcDbVertex
100
AcDb2dVertex
 10
97.71944442001458
 20
-284.3388888178042
 30
0.0
  0
SEQEND
  5
125
330
122
100
AcDbEntity
  8
Layer 2
 62
   153
420
  4689612
370
    80
  0
POLYLINE
  5
126
330
1F
100
AcDbEntity
  8
Layer 2
 62
   153
420
  4689612
370
    80
100
AcDb2dPolyline
 66
     1
 10
0.0
 20
0.0
 30
0.0
  0
VERTEX
  5
127
330
126
100
AcDbEntity
  8
Layer 2
 62
   153
420
  4689612
370
    80
100
AcDbVertex
100
AcDb2dVertex
 10
97.71944442001458
 20
-64.55833331719376
 30
0.0
  0
VERTEX
  5
128
330
126
100
AcDbEntity
  8
Layer 2
 62
   153
420
  4689612
370
    80
100
AcDbVertex
100
AcDb2dVertex
 10
97.71944442001458
 20
-284.3388888178042
 30
0.0
  0
SEQEND
  5
129
330
126
100
AcDbEntity
  8
Layer 2
 62
   153
420
  4689612
370
    80
  0
POLYLINE
  5
12A
330
1F
100
AcDbEntity
  8
Layer 2
 62
   153
420
  4689612
370
    80
100
AcDb2dPolyline
 66
     1
 10
0.0
 20
0.0
 30
0.0
  0
VERTEX
  5
12B
330
12A
100
AcDbEntity
  8
Layer 2
 62
   153
420
  4689612
370
    80
100
AcDbVertex
100
AcDb2dVertex
 10
454.3400214501628
 20
-305.5054315779124
 30
0.0
  0
VERTEX
  5
12C
330
12A
100
AcDbEntity
  8
Layer 2
 62
   153
420
  4689612
370
    80
100
AcDbVertex
100
AcDb2dVertex
 10
119.2388775917411
 20
-305.5054315779124
 30
0.0
  0
SEQEND
  5
12D
330
12A
100
AcDbEntity
  8
Layer 2
 62
   153
420
  4689612
370
    80
  0
INSERT
  5
12F
330
1F
100
AcDbEntity
  8
Layer 2
100
AcDbBlockReference
  2
block 7
 10
0.0
 20
0.0
 30
0.0
  0
INSERT
  5
137
330
1F
100
AcDbEntity
  8
Layer 2
100
AcDbBlockReference
  2
block 8
 10
0.0
 20
0.0
 30
0.0
  0
INSERT
  5
13F
330
1F
100
AcDbEntity
  8
Layer 2
100
AcDbBlockReference
  2
block 9
 10
0.0
 20
0.0
 30
0.0
  0
INSERT
  5
147
330
1F
100
AcDbEntity
  8
Layer 2
100
AcDbBlockReference
  2
block 10
 10
0.0
 20
0.0
 30
0.0
  0
POLYLINE
  5
14E
330
1F
100
AcDbEntity
  8
Layer 2
 62
   153
420
  4689612
370
    70
100
AcDb2dPolyline
 66
     1
 10
0.0
 20
0.0
 30
0.0
  0
VERTEX
  5
14F
330
14E
100
AcDbEntity
  8
Layer 2
 62
   153
420
  4689612
370
    70
100
AcDbVertex
100
AcDb2dVertex
 10
525.1097220909448
 20
-25.92916666018438
 30
0.0
  0
VERTEX
  5
150
330
14E
100
AcDbEntity
  8
Layer 2
 62
   153
420
  4689612
370
    70
100
AcDbVertex
100
AcDb2dVertex
 10
525.1097220909448
 20
-68.26249998293437
 30
0.0
  0
SEQEND
  5
151
330
14E
100
AcDbEntity
  8
Layer 2
 62
   153
420
  4689612
370
    70
  0
POLYLINE
  5
152
330
1F
100
AcDbEntity
  8
Layer 2
 62
   153
420
  4689612
370
    70
100
AcDb2dPolyline
 66
     1
 10
0.0
 20
0.0
 30
0.0
  0
VERTEX
  5
153
330
152
100
AcDbEntity
  8
Layer 2
 62
   153
420
  4689612
370
    70
100
AcDbVertex
100
AcDb2dVertex
 10
525.2861109797896
 20
-68.43888887177884
 30
0.0
  0
VERTEX
  5
154
330
152
100
AcDbEntity
  8
Layer 2
 62
   153
420
  4689612
370
    70
100
AcDbVertex
100
AcDb2dVertex
 10
628.6499998428375
 20
-68.43888887177884
 30
0.0
  0
SEQEND
  5
155
330
152
100
AcDbEntity
  8
Layer 2
 62
   153
420
  4689612
370
    70
  0
MTEXT
  5
156
330
1F
100
AcDbEntity
  8
Layer 2
 62
     7
420
 16777215
100
AcDbMText
 10
234.5033338914169
 20
-174.6157197303804
 30
0.0
 40
8.9915999977521
 41
0.0
 46
0.0
 71
     7
 72
     1
  1
\fAxure Handwriting|b1|i0|c0|p34;\W1;0.175 mm Plastic X 40
 73
     1
 44
1.0
  0
MTEXT
  5
157
330
1F
100
AcDbEntity
  8
Layer 2
 62
     7
420
 16777215
100
AcDbMText
 10
141.0365247585777
 20
-30.80242647884453
 30
0.0
 40
8.9915999977521
 41
0.0
 46
0.0
 71
     7
 72
     1
  1
\fAxure Handwriting|b1|i0|c0|p34;\W1;400 GSM Kraft paper X 20 / 0.175 mm Plastic X 20
 73
     1
 44
1.0
  0
SPLINE
  5
158
330
1F
100
AcDbEntity
  8
Layer 2
370
     0
100
AcDbSpline
210
0.0
220
0.0
230
1.0
 70
    11
 71
     3
 72
    29
 73
    25
 74
     0
 42
0.0000000001
 43
0.0000000001
 12
1.0
 22
0.0
 32
0.0
 13
1.0
 23
0.0
 33
0.0
 40
0.0
 40
0.0
 40
0.0
 40
0.0
 40
1.0
 40
1.0
 40
1.0
 40
2.0
 40
2.0
 40
2.0
 40
3.0
 40
3.0
 40
3.0
 40
4.0
 40
4.0
 40
4.0
 40
5.0
 40
5.0
 40
5.0
 40
6.0
 40
6.0
 40
6.0
 40
7.0
 40
7.0
 40
7.0
 40
8.0
 40
8.0
 40
8.0
 40
8.0
 10
37.49444443507049
 20
-38.25434963582629
 30
0.0
 10
37.49444443507049
 20
-38.25434963582629
 30
0.0
 10
-40.50555554542942
 20
-38.25434963582629
 30
0.0
 10
-40.50555554542942
 20
-38.25434963582629
 30
0.0
 10
-46.555555543917
 20
-38.25434963582629
 30
0.0
 10
-51.50555554267949
 20
-33.30434963706379
 30
0.0
 10
-51.50555554267949
 20
-27.25434963857622
 30
0.0
 10
-51.50555554267949
 20
-27.25434963857622
 30
0.0
 10
-51.50555554267949
 20
-25.97101630556385
 30
0.0
 10
-51.50555554267949
 20
-25.97101630556385
 30
0.0
 10
-51.50555554267949
 20
-19.92101630707629
 30
0.0
 10
-46.555555543917
 20
-14.97101630831379
 30
0.0
 10
-40.50555554542942
 20
-14.97101630831379
 30
0.0
 10
-40.50555554542942
 20
-14.97101630831379
 30
0.0
 10
37.49444443507049
 20
-14.97101630831379
 30
0.0
 10
37.49444443507049
 20
-14.97101630831379
 30
0.0
 10
43.54444443355806
 20
-14.97101630831379
 30
0.0
 10
48.49444443232056
 20
-19.92101630707629
 30
0.0
 10
48.49444443232056
 20
-25.97101630556385
 30
0.0
 10
48.49444443232056
 20
-25.97101630556385
 30
0.0
 10
48.49444443232056
 20
-27.25434963857622
 30
0.0
 10
48.49444443232056
 20
-27.25434963857622
 30
0.0
 10
48.49444443232056
 20
-33.30434963706379
 30
0.0
 10
43.54444443355806
 20
-38.25434963582629
 30
0.0
 10
37.49444443507049
 20
-38.25434963582629
 30
0.0
  0
HATCH
  5
159
330
1F
100
AcDbEntity
  8
Layer 2
 62
   142
420
  2730978
100
AcDbHatch
 10
0.0
 20
0.0
 30
0.0
210
0.0
220
0.0
230
1.0
  2
SOLID
 70
     1
 71
     0
 91
        1
 92
        1
 93
        1
 72
     4
 94
        3
 73
     0
 74
     1
 95
       29
 96
       25
 40
0.0
 40
0.0
 40
0.0
 40
0.0
 40
1.0
 40
1.0
 40
1.0
 40
2.0
 40
2.0
 40
2.0
 40
3.0
 40
3.0
 40
3.0
 40
4.0
 40
4.0
 40
4.0
 40
5.0
 40
5.0
 40
5.0
 40
6.0
 40
6.0
 40
6.0
 40
7.0
 40
7.0
 40
7.0
 40
8.0
 40
8.0
 40
8.0
 40
8.0
 10
37.49444443507049
 20
-38.25434963582629
 10
37.49444443507049
 20
-38.25434963582629
 10
-40.50555554542942
 20
-38.25434963582629
 10
-40.50555554542942
 20
-38.25434963582629
 10
-46.555555543917
 20
-38.25434963582629
 10
-51.50555554267949
 20
-33.30434963706379
 10
-51.50555554267949
 20
-27.25434963857622
 10
-51.50555554267949
 20
-27.25434963857622
 10
-51.50555554267949
 20
-25.97101630556385
 10
-51.50555554267949
 20
-25.97101630556385
 10
-51.50555554267949
 20
-19.92101630707629
 10
-46.555555543917
 20
-14.97101630831379
 10
-40.50555554542942
 20
-14.97101630831379
 10
-40.50555554542942
 20
-14.97101630831379
 10
37.49444443507049
 20
-14.97101630831379
 10
37.49444443507049
 20
-14.97101630831379
 10
43.54444443355806
 20
-14.97101630831379
 10
48.49444443232056
 20
-19.92101630707629
 10
48.49444443232056
 20
-25.97101630556385
 10
48.49444443232056
 20
-25.97101630556385
 10
48.49444443232056
 20
-27.25434963857622
 10
48.49444443232056
 20
-27.25434963857622
 10
48.49444443232056
 20
-33.30434963706379
 10
43.54444443355806
 20
-38.25434963582629
 10
37.49444443507049
 20
-38.25434963582629
 97
        0
 97
        0
 75
     2
 76
     1
 98
        0
  0
SPLINE
  5
15A
330
1F
100
AcDbEntity
  8
Layer 2
370
     0
100
AcDbSpline
210
0.0
220
0.0
230
1.0
 70
    11
 71
     3
 72
    29
 73
    25
 74
     0
 42
0.0000000001
 43
0.0000000001
 12
1.0
 22
0.0
 32
0.0
 13
1.0
 23
0.0
 33
0.0
 40
0.0
 40
0.0
 40
0.0
 40
0.0
 40
1.0
 40
1.0
 40
1.0
 40
2.0
 40
2.0
 40
2.0
 40
3.0
 40
3.0
 40
3.0
 40
4.0
 40
4.0
 40
4.0
 40
5.0
 40
5.0
 40
5.0
 40
6.0
 40
6.0
 40
6.0
 40
7.0
 40
7.0
 40
7.0
 40
8.0
 40
8.0
 40
8.0
 40
8.0
 10
614.2861109575399
 20
-38.25434963582629
 30
0.0
 10
614.2861109575399
 20
-38.25434963582629
 30
0.0
 10
536.2861109770378
 20
-38.25434963582629
 30
0.0
 10
536.2861109770378
 20
-38.25434963582629
 30
0.0
 10
530.2361109785511
 20
-38.25434963582629
 30
0.0
 10
525.2861109797896
 20
-33.30434963706379
 30
0.0
 10
525.2861109797896
 20
-27.25434963857622
 30
0.0
 10
525.2861109797896
 20
-27.25434963857622
 30
0.0
 10
525.2861109797896
 20
-25.97101630556385
 30
0.0
 10
525.2861109797896
 20
-25.97101630556385
 30
0.0
 10
525.2861109797896
 20
-19.92101630707629
 30
0.0
 10
530.2361109785511
 20
-14.97101630831379
 30
0.0
 10
536.2861109770378
 20
-14.97101630831379
 30
0.0
 10
536.2861109770378
 20
-14.97101630831379
 30
0.0
 10
614.2861109575399
 20
-14.97101630831379
 30
0.0
 10
614.2861109575399
 20
-14.97101630831379
 30
0.0
 10
620.3361109560265
 20
-14.97101630831379
 30
0.0
 10
625.286110954788
 20
-19.92101630707629
 30
0.0
 10
625.286110954788
 20
-25.97101630556385
 30
0.0
 10
625.286110954788
 20
-25.97101630556385
 30
0.0
 10
625.286110954788
 20
-27.25434963857622
 30
0.0
 10
625.286110954788
 20
-27.25434963857622
 30
0.0
 10
625.286110954788
 20
-33.30434963706379
 30
0.0
 10
620.3361109560265
 20
-38.25434963582629
 30
0.0
 10
614.2861109575399
 20
-38.25434963582629
 30
0.0
  0
HATCH
  5
15B
330
1F
100
AcDbEntity
  8
Layer 2
 62
   142
420
  2730978
100
AcDbHatch
 10
0.0
 20
0.0
 30
0.0
210
0.0
220
0.0
230
1.0
  2
SOLID
 70
     1
 71
     0
 91
        1
 92
        1
 93
        1
 72
     4
 94
        3
 73
     0
 74
     1
 95
       29
 96
       25
 40
0.0
 40
0.0
 40
0.0
 40
0.0
 40
1.0
 40
1.0
 40
1.0
 40
2.0
 40
2.0
 40
2.0
 40
3.0
 40
3.0
 40
3.0
 40
4.0
 40
4.0
 40
4.0
 40
5.0
 40
5.0
 40
5.0
 40
6.0
 40
6.0
 40
6.0
 40
7.0
 40
7.0
 40
7.0
 40
8.0
 40
8.0
 40
8.0
 40
8.0
 10
614.2861109575399
 20
-38.25434963582629
 10
614.2861109575399
 20
-38.25434963582629
 10
536.2861109770378
 20
-38.25434963582629
 10
536.2861109770378
 20
-38.25434963582629
 10
530.2361109785511
 20
-38.25434963582629
 10
525.2861109797896
 20
-33.30434963706379
 10
525.2861109797896
 20
-27.25434963857622
 10
525.2861109797896
 20
-27.25434963857622
 10
525.2861109797896
 20
-25.97101630556385
 10
525.2861109797896
 20
-25.97101630556385
 10
525.2861109797896
 20
-19.92101630707629
 10
530.2361109785511
 20
-14.97101630831379
 10
536.2861109770378
 20
-14.97101630831379
 10
536.2861109770378
 20
-14.97101630831379
 10
614.2861109575399
 20
-14.97101630831379
 10
614.2861109575399
 20
-14.97101630831379
 10
620.3361109560265
 20
-14.97101630831379
 10
625.286110954788
 20
-19.92101630707629
 10
625.286110954788
 20
-25.97101630556385
 10
625.286110954788
 20
-25.97101630556385
 10
625.286110954788
 20
-27.25434963857622
 10
625.286110954788
 20
-27.25434963857622
 10
625.286110954788
 20
-33.30434963706379
 10
620.3361109560265
 20
-38.25434963582629
 10
614.2861109575399
 20
-38.25434963582629
 97
        0
 97
        0
 75
     2
 76
     1
 98
        0
  0
MTEXT
  5
15C
330
1F
100
AcDbEntity
  8
Layer 2
 62
     7
420
 16777215
100
AcDbMText
 10
556.2451170484387
 20
-30.44199345675345
 30
0.0
 40
8.9915999977521
 41
0.0
 46
0.0
 71
     7
 72
     1
  1
\fAxure Handwriting|b1|i0|c0|p34;\W1;Velcro
 73
     1
 44
1.0
  0
MTEXT
  5
15D
330
1F
100
AcDbEntity
  8
Layer 2
 62
     7
420
 16777215
100
AcDbMText
 10
-20.54639875110255
 20
-30.44199345675345
 30
0.0
 40
8.9915999977521
 41
0.0
 46
0.0
 71
     7
 72
     1
  1
\fAxure Handwriting|b1|i0|c0|p34;\W1;Velcro
 73
     1
 44
1.0
  0
ENDSEC
  0
SECTION
  2
OBJECTS
  0
DICTIONARY
  5
C
330
0
100
AcDbDictionary
281
     1
  3
ACAD_GROUP
350
D
  3
ACAD_LAYOUT
350
1A
  3
ACAD_MATERIAL
350
3B
  3
ACAD_MLEADERSTYLE
350
15F
  3
ACAD_MLINESTYLE
350
17
  3
ACAD_PLOTSETTINGS
350
19
  3
ACAD_PLOTSTYLENAME
350
E
  3
ACAD_TABLESTYLE
350
15E
  3
ACAD_VISUALSTYLE
350
2A
  0
SUN
  5
3F
330
29
100
AcDbSun
 90
        1
290
     0
 63
     7
421
 16777215
 40
1.0
291
     1
 91
  2455826
 92
 54000000
292
     0
 70
     2
 71
   256
280
     1
  0
DICTIONARY
  5
D
102
{ACAD_REACTORS
330
C
102
}
330
C
100
AcDbDictionary
281
     1
  0
DICTIONARY
  5
1A
102
{ACAD_REACTORS
330
C
102
}
330
C
100
AcDbDictionary
281
     1
  3
Layout1
350
1E
  3
Layout2
350
26
  3
Model
350
22
  0
DICTIONARY
  5
3B
102
{ACAD_REACTORS
330
C
102
}
330
C
100
AcDbDictionary
281
     1
  3
ByBlock
350
3D
  3
ByLayer
350
3C
  3
Global
350
3E
  0
DICTIONARY
  5
15F
102
{ACAD_REACTORS
330
C
102
}
330
C
100
AcDbDictionary
281
     1
  0
DICTIONARY
  5
17
102
{ACAD_REACTORS
330
C
102
}
330
C
100
AcDbDictionary
281
     1
  3
Standard
350
18
  0
DICTIONARY
  5
19
102
{ACAD_REACTORS
330
C
102
}
330
C
100
AcDbDictionary
281
     1
  0
ACDBDICTIONARYWDFLT
  5
E
102
{ACAD_REACTORS
330
C
102
}
330
C
100
AcDbDictionary
281
     1
  3
Normal
350
F
100
AcDbDictionaryWithDefault
340
F
  0
DICTIONARY
  5
15E
102
{ACAD_REACTORS
330
C
102
}
330
C
100
AcDbDictionary
281
     1
  0
DICTIONARY
  5
2A
102
{ACAD_REACTORS
330
C
102
}
330
C
100
AcDbDictionary
281
     1
  3
2dWireframe
350
2F
  3
3D Hidden
350
31
  3
3dWireframe
350
30
  3
Basic
350
32
  3
Brighten
350
36
  3
ColorChange
350
3A
  3
Conceptual
350
34
  3
Dim
350
35
  3
Facepattern
350
39
  3
Flat
350
2B
  3
FlatWithEdges
350
2C
  3
Gouraud
350
2D
  3
GouraudWithEdges
350
2E
  3
Linepattern
350
38
  3
Realistic
350
33
  3
Thicken
350
37
  0
LAYOUT
  5
1E
102
{ACAD_REACTORS
330
1A
102
}
330
1A
100
AcDbPlotSettings
  1

  2
none_device
  4

  6

 40
0.0
 41
0.0
 42
0.0
 43
0.0
 44
0.0
 45
0.0
 46
0.0
 47
0.0
 48
0.0
 49
0.0
140
0.0
141
0.0
142
1.0
143
1.0
 70
   688
 72
     0
 73
     0
 74
     5
  7

 75
    16
 76
     0
 77
     2
 78
   300
147
1.0
148
0.0
149
0.0
100
AcDbLayout
  1
Layout1
 70
     1
 71
     1
 10
0.0
 20
0.0
 11
12.0
 21
9.0
 12
0.0
 22
0.0
 32
0.0
 14
1.000000000000000E+20
 24
1.000000000000000E+20
 34
1.000000000000000E+20
 15
-1.000000000000000E+20
 25
-1.000000000000000E+20
 35
-1.000000000000000E+20
146
0.0
 13
0.0
 23
0.0
 33
0.0
 16
1.0
 26
0.0
 36
0.0
 17
0.0
 27
1.0
 37
0.0
 76
     0
330
1B
  0
LAYOUT
  5
26
102
{ACAD_REACTORS
330
1A
102
}
330
1A
100
AcDbPlotSettings
  1

  2
none_device
  4

  6

 40
0.0
 41
0.0
 42
0.0
 43
0.0
 44
0.0
 45
0.0
 46
0.0
 47
0.0
 48
0.0
 49
0.0
140
0.0
141
0.0
142
1.0
143
1.0
 70
   688
 72
     0
 73
     0
 74
     5
  7

 75
    16
 76
     0
 77
     2
 78
   300
147
1.0
148
0.0
149
0.0
100
AcDbLayout
  1
Layout2
 70
     1
 71
     2
 10
0.0
 20
0.0
 11
0.0
 21
0.0
 12
0.0
 22
0.0
 32
0.0
 14
0.0
 24
0.0
 34
0.0
 15
0.0
 25
0.0
 35
0.0
146
0.0
 13
0.0
 23
0.0
 33
0.0
 16
1.0
 26
0.0
 36
0.0
 17
0.0
 27
1.0
 37
0.0
 76
     0
330
23
  0
LAYOUT
  5
22
102
{ACAD_REACTORS
330
1A
102
}
330
1A
100
AcDbPlotSettings
  1

  2
none_device
  4

  6

 40
0.0
 41
0.0
 42
0.0
 43
0.0
 44
0.0
 45
0.0
 46
0.0
 47
0.0
 48
0.0
 49
0.0
140
0.0
141
0.0
142
1.0
143
1.0
 70
  1712
 72
     0
 73
     0
 74
     0
  7

 75
     0
 76
     0
 77
     2
 78
   300
147
1.0
148
0.0
149
0.0
100
AcDbLayout
  1
Model
 70
     1
 71
     0
 10
0.0
 20
0.0
 11
12.0
 21
9.0
 12
0.0
 22
0.0
 32
0.0
 14
1.000000000000000E+20
 24
1.000000000000000E+20
 34
1.000000000000000E+20
 15
-1.000000000000000E+20
 25
-1.000000000000000E+20
 35
-1.000000000000000E+20
146
0.0
 13
0.0
 23
0.0
 33
0.0
 16
1.0
 26
0.0
 36
0.0
 17
0.0
 27
1.0
 37
0.0
 76
     0
330
1F
331
29
  0
MATERIAL
  5
3D
102
{ACAD_REACTORS
330
3B
102
}
330
3B
100
AcDbMaterial
  1
ByBlock
 72
     1
 94
      127
  0
MATERIAL
  5
3C
102
{ACAD_REACTORS
330
3B
102
}
330
3B
100
AcDbMaterial
  1
ByLayer
 72
     1
 94
      127
  0
MATERIAL
  5
3E
102
{ACAD_REACTORS
330
3B
102
}
330
3B
100
AcDbMaterial
  1
Global
 72
     1
 94
      127
  0
MLINESTYLE
  5
18
102
{ACAD_REACTORS
330
17
102
}
330
17
100
AcDbMlineStyle
  2
Standard
 70
     0
  3

 62
   256
 51
90.0
 52
90.0
 71
     2
 49
0.5
 62
   256
  6
BYLAYER
 49
-0.5
 62
   256
  6
BYLAYER
  0
ACDBPLACEHOLDER
  5
F
102
{ACAD_REACTORS
330
E
102
}
330
E
  0
VISUALSTYLE
  5
2F
102
{ACAD_REACTORS
330
2A
102
}
330
2A
100
AcDbVisualStyle
  2
2dWireframe
 70
     4
177
     2
291
     0
 71
     0
176
     1
 72
     2
176
     1
 73
     0
176
     1
 90
        0
176
     1
 40
-0.6
176
     1
 41
-30.0
176
     1
 62
     5
 63
     7
421
 16777215
176
     1
 74
     1
176
     1
 91
        4
176
     1
 64
     7
176
     1
 65
   257
176
     1
 75
     1
176
     1
175
     1
176
     1
 42
1.0
176
     1
 92
        0
176
     1
 66
   257
176
     1
 43
1.0
176
     1
 76
     1
176
     1
 77
     6
176
     1
 78
     2
176
     1
 67
     7
176
     1
 79
     5
176
     1
170
     0
176
     1
171
     0
176
     1
290
     0
176
     1
 93
        1
176
     1
 44
0.0
176
     1
173
     0
176
     1
  0
VISUALSTYLE
  5
31
102
{ACAD_REACTORS
330
2A
102
}
330
2A
100
AcDbVisualStyle
  2
3D Hidden
 70
     6
177
     2
291
     0
 71
     1
176
     1
 72
     2
176
     1
 73
     2
176
     1
 90
        0
176
     1
 40
-0.6
176
     1
 41
-30.0
176
     1
 62
     5
 63
     7
421
 16777215
176
     1
 74
     2
176
     1
 91
        2
176
     1
 64
     7
176
     1
 65
   257
176
     1
 75
     2
176
     1
175
     1
176
     1
 42
40.0
176
     1
 92
        0
176
     1
 66
   257
176
     1
 43
1.0
176
     1
 76
     1
176
     1
 77
     6
176
     1
 78
     2
176
     1
 67
     7
176
     1
 79
     3
176
     1
170
     0
176
     1
171
     0
176
     1
290
     0
176
     1
 93
        1
176
     1
 44
0.0
176
     1
173
     0
176
     1
  0
VISUALSTYLE
  5
30
102
{ACAD_REACTORS
330
2A
102
}
330
2A
100
AcDbVisualStyle
  2
3dWireframe
 70
     5
177
     2
291
     0
 71
     0
176
     1
 72
     2
176
     1
 73
     0
176
     1
 90
        0
176
     1
 40
-0.6
176
     1
 41
-30.0
176
     1
 62
     5
 63
     7
421
 16777215
176
     1
 74
     1
176
     1
 91
        4
176
     1
 64
     7
176
     1
 65
   257
176
     1
 75
     1
176
     1
175
     1
176
     1
 42
1.0
176
     1
 92
        0
176
     1
 66
   257
176
     1
 43
1.0
176
     1
 76
     1
176
     1
 77
     6
176
     1
 78
     2
176
     1
 67
     7
176
     1
 79
     5
176
     1
170
     0
176
     1
171
     0
176
     1
290
     0
176
     1
 93
        1
176
     1
 44
0.0
176
     1
173
     0
176
     1
  0
VISUALSTYLE
  5
32
102
{ACAD_REACTORS
330
2A
102
}
330
2A
100
AcDbVisualStyle
  2
Basic
 70
     7
177
     2
291
     1
 71
     1
176
     1
 72
     0
176
     1
 73
     1
176
     1
 90
        0
176
     1
 40
-0.6
176
     1
 41
-30.0
176
     1
 62
     5
 63
     7
421
 16777215
176
     1
 74
     0
176
     1
 91
        4
176
     1
 64
     7
176
     1
 65
   257
176
     1
 75
     1
176
     1
175
     1
176
     1
 42
1.0
176
     1
 92
        8
176
     1
 66
     7
176
     1
 43
1.0
176
     1
 76
     1
176
     1
 77
     6
176
     1
 78
     2
176
     1
 67
     7
176
     1
 79
     5
176
     1
170
     0
176
     1
171
     0
176
     1
290
     0
176
     1
 93
        1
176
     1
 44
0.0
176
     1
173
     0
176
     1
  0
VISUALSTYLE
  5
36
102
{ACAD_REACTORS
330
2A
102
}
330
2A
100
AcDbVisualStyle
  2
Brighten
 70
    12
177
     2
291
     1
 71
     2
176
     1
 72
     2
176
     1
 73
     0
176
     1
 90
        0
176
     1
 40
-0.6
176
     1
 41
-30.0
176
     1
 62
     5
 63
     7
421
 16777215
176
     1
 74
     1
176
     1
 91
        4
176
     1
 64
     7
176
     1
 65
   257
176
     1
 75
     1
176
     1
175
     1
176
     1
 42
1.0
176
     1
 92
        8
176
     1
 66
     7
176
     1
 43
1.0
176
     1
 76
     1
176
     1
 77
     6
176
     1
 78
     2
176
     1
 67
     7
176
     1
 79
     5
176
     1
170
     0
176
     1
171
     0
176
     1
290
     0
176
     1
 93
        1
176
     1
 44
50.0
176
     1
173
     0
176
     1
  0
VISUALSTYLE
  5
3A
102
{ACAD_REACTORS
330
2A
102
}
330
2A
100
AcDbVisualStyle
  2
ColorChange
 70
    16
177
     2
291
     1
 71
     2
176
     1
 72
     2
176
     1
 73
     3
176
     1
 90
        0
176
     1
 40
-0.6
176
     1
 41
-30.0
176
     1
 62
     5
 63
     8
421
  8421504
176
     1
 74
     1
176
     1
 91
        4
176
     1
 64
     7
176
     1
 65
   257
176
     1
 75
     1
176
     1
175
     1
176
     1
 42
1.0
176
     1
 92
        8
176
     1
 66
     8
424
  8421504
176
     1
 43
1.0
176
     1
 76
     1
176
     1
 77
     6
176
     1
 78
     2
176
     1
 67
     7
176
     1
 79
     5
176
     1
170
     0
176
     1
171
     0
176
     1
290
     0
176
     1
 93
        1
176
     1
 44
0.0
176
     1
173
     0
176
     1
  0
VISUALSTYLE
  5
34
102
{ACAD_REACTORS
330
2A
102
}
330
2A
100
AcDbVisualStyle
  2
Conceptual
 70
     9
177
     2
291
     0
 71
     3
176
     1
 72
     2
176
     1
 73
     0
176
     1
 90
        0
176
     1
 40
-0.6
176
     1
 41
-30.0
176
     1
 62
     5
 63
     7
421
 16777215
176
     1
 74
     2
176
     1
 91
        2
176
     1
 64
     7
176
     1
 65
   257
176
     1
 75
     1
176
     1
175
     1
176
     1
 42
40.0
176
     1
 92
        8
176
     1
 66
     7
176
     1
 43
1.0
176
     1
 76
     1
176
     1
 77
     6
176
     1
 78
     2
176
     1
 67
     7
176
     1
 79
     3
176
     1
170
     0
176
     1
171
     0
176
     1
290
     0
176
     1
 93
        1
176
     1
 44
0.0
176
     1
173
     0
176
     1
  0
VISUALSTYLE
  5
35
102
{ACAD_REACTORS
330
2A
102
}
330
2A
100
AcDbVisualStyle
  2
Dim
 70
    11
177
     2
291
     1
 71
     2
176
     1
 72
     2
176
     1
 73
     0
176
     1
 90
        0
176
     1
 40
-0.6
176
     1
 41
-30.0
176
     1
 62
     5
 63
     7
421
 16777215
176
     1
 74
     1
176
     1
 91
        4
176
     1
 64
     7
176
     1
 65
   257
176
     1
 75
     1
176
     1
175
     1
176
     1
 42
1.0
176
     1
 92
        8
176
     1
 66
     7
176
     1
 43
1.0
176
     1
 76
     1
176
     1
 77
     6
176
     1
 78
     2
176
     1
 67
     7
176
     1
 79
     5
176
     1
170
     0
176
     1
171
     0
176
     1
290
     0
176
     1
 93
        1
176
     1
 44
-50.0
176
     1
173
     0
176
     1
  0
VISUALSTYLE
  5
39
102
{ACAD_REACTORS
330
2A
102
}
330
2A
100
AcDbVisualStyle
  2
Facepattern
 70
    15
177
     2
291
     1
 71
     2
176
     1
 72
     2
176
     1
 73
     0
176
     1
 90
        0
176
     1
 40
-0.6
176
     1
 41
-30.0
176
     1
 62
     5
 63
     7
421
 16777215
176
     1
 74
     1
176
     1
 91
        4
176
     1
 64
     7
176
     1
 65
   257
176
     1
 75
     1
176
     1
175
     1
176
     1
 42
1.0
176
     1
 92
        8
176
     1
 66
     7
176
     1
 43
1.0
176
     1
 76
     1
176
     1
 77
     6
176
     1
 78
     2
176
     1
 67
     7
176
     1
 79
     5
176
     1
170
     0
176
     1
171
     0
176
     1
290
     0
176
     1
 93
        1
176
     1
 44
0.0
176
     1
173
     0
176
     1
  0
VISUALSTYLE
  5
2B
102
{ACAD_REACTORS
330
2A
102
}
330
2A
100
AcDbVisualStyle
  2
Flat
 70
     0
177
     2
291
     1
 71
     2
176
     1
 72
     1
176
     1
 73
     1
176
     1
 90
        2
176
     1
 40
-0.6
176
     1
 41
30.0
176
     1
 62
     5
 63
     7
421
 16777215
176
     1
 74
     0
176
     1
 91
        4
176
     1
 64
     7
176
     1
 65
   257
176
     1
 75
     1
176
     1
175
     1
176
     1
 42
1.0
176
     1
 92
        8
176
     1
 66
     7
176
     1
 43
1.0
176
     1
 76
     1
176
     1
 77
     6
176
     1
 78
     2
176
     1
 67
     7
176
     1
 79
     5
176
     1
170
     0
176
     1
171
     0
176
     1
290
     0
176
     1
 93
       13
176
     1
 44
0.0
176
     1
173
     0
176
     1
  0
VISUALSTYLE
  5
2C
102
{ACAD_REACTORS
330
2A
102
}
330
2A
100
AcDbVisualStyle
  2
FlatWithEdges
 70
     1
177
     2
291
     1
 71
     2
176
     1
 72
     1
176
     1
 73
     1
176
     1
 90
        2
176
     1
 40
-0.6
176
     1
 41
30.0
176
     1
 62
     5
 63
     7
421
 16777215
176
     1
 74
     1
176
     1
 91
        4
176
     1
 64
     7
176
     1
 65
   257
176
     1
 75
     1
176
     1
175
     1
176
     1
 42
1.0
176
     1
 92
        0
176
     1
 66
   257
176
     1
 43
1.0
176
     1
 76
     1
176
     1
 77
     6
176
     1
 78
     2
176
     1
 67
     7
176
     1
 79
     5
176
     1
170
     0
176
     1
171
     0
176
     1
290
     0
176
     1
 93
       13
176
     1
 44
0.0
176
     1
173
     0
176
     1
  0
VISUALSTYLE
  5
2D
102
{ACAD_REACTORS
330
2A
102
}
330
2A
100
AcDbVisualStyle
  2
Gouraud
 70
     2
177
     2
291
     1
 71
     2
176
     1
 72
     2
176
     1
 73
     1
176
     1
 90
        2
176
     1
 40
-0.6
176
     1
 41
30.0
176
     1
 62
     5
 63
     7
421
 16777215
176
     1
 74
     0
176
     1
 91
        4
176
     1
 64
     7
176
     1
 65
   257
176
     1
 75
     1
176
     1
175
     1
176
     1
 42
1.0
176
     1
 92
        0
176
     1
 66
     7
176
     1
 43
1.0
176
     1
 76
     1
176
     1
 77
     6
176
     1
 78
     2
176
     1
 67
     7
176
     1
 79
     5
176
     1
170
     0
176
     1
171
     0
176
     1
290
     0
176
     1
 93
       13
176
     1
 44
0.0
176
     1
173
     0
176
     1
  0
VISUALSTYLE
  5
2E
102
{ACAD_REACTORS
330
2A
102
}
330
2A
100
AcDbVisualStyle
  2
GouraudWithEdges
 70
     3
177
     2
291
     1
 71
     2
176
     1
 72
     2
176
     1
 73
     1
176
     1
 90
        2
176
     1
 40
-0.6
176
     1
 41
30.0
176
     1
 62
     5
 63
     7
421
 16777215
176
     1
 74
     1
176
     1
 91
        4
176
     1
 64
     7
176
     1
 65
   257
176
     1
 75
     1
176
     1
175
     1
176
     1
 42
1.0
176
     1
 92
        0
176
     1
 66
   257
176
     1
 43
1.0
176
     1
 76
     1
176
     1
 77
     6
176
     1
 78
     2
176
     1
 67
     7
176
     1
 79
     5
176
     1
170
     0
176
     1
171
     0
176
     1
290
     0
176
     1
 93
       13
176
     1
 44
0.0
176
     1
173
     0
176
     1
  0
VISUALSTYLE
  5
38
102
{ACAD_REACTORS
330
2A
102
}
330
2A
100
AcDbVisualStyle
  2
Linepattern
 70
    14
177
     2
291
     1
 71
     2
176
     1
 72
     2
176
     1
 73
     0
176
     1
 90
        0
176
     1
 40
-0.6
176
     1
 41
-30.0
176
     1
 62
     5
 63
     7
421
 16777215
176
     1
 74
     1
176
     1
 91
        4
176
     1
 64
     7
176
     1
 65
   257
176
     1
 75
     7
176
     1
175
     7
176
     1
 42
1.0
176
     1
 92
        8
176
     1
 66
     7
176
     1
 43
1.0
176
     1
 76
     1
176
     1
 77
     6
176
     1
 78
     2
176
     1
 67
     7
176
     1
 79
     5
176
     1
170
     0
176
     1
171
     0
176
     1
290
     0
176
     1
 93
        1
176
     1
 44
0.0
176
     1
173
     0
176
     1
  0
VISUALSTYLE
  5
33
102
{ACAD_REACTORS
330
2A
102
}
330
2A
100
AcDbVisualStyle
  2
Realistic
 70
     8
177
     2
291
     0
 71
     2
176
     1
 72
     2
176
     1
 73
     0
176
     1
 90
        0
176
     1
 40
-0.6
176
     1
 41
-30.0
176
     1
 62
     5
 63
     7
421
 16777215
176
     1
 74
     1
176
     1
 91
        0
176
     1
 64
     7
176
     1
 65
   257
176
     1
 75
     1
176
     1
175
     1
176
     1
 42
1.0
176
     1
 92
        8
176
     1
 66
     8
424
  7895160
176
     1
 43
1.0
176
     1
 76
     1
176
     1
 77
     6
176
     1
 78
     2
176
     1
 67
     7
176
     1
 79
     5
176
     1
170
     0
176
     1
171
     0
176
     1
290
     0
176
     1
 93
       13
176
     1
 44
0.0
176
     1
173
     0
176
     1
  0
VISUALSTYLE
  5
37
102
{ACAD_REACTORS
330
2A
102
}
330
2A
100
AcDbVisualStyle
  2
Thicken
 70
    13
177
     2
291
     1
 71
     2
176
     1
 72
     2
176
     1
 73
     0
176
     1
 90
        0
176
     1
 40
-0.6
176
     1
 41
-30.0
176
     1
 62
     5
 63
     7
421
 16777215
176
     1
 74
     1
176
     1
 91
        4
176
     1
 64
     7
176
     1
 65
   257
176
     1
 75
     1
176
     1
175
     1
176
     1
 42
1.0
176
     1
 92
       12
176
     1
 66
     7
176
     1
 43
1.0
176
     1
 76
     1
176
     1
 77
     6
176
     1
 78
     2
176
     1
 67
     7
176
     1
 79
     5
176
     1
170
     0
176
     1
171
     0
176
     1
290
     0
176
     1
 93
        1
176
     1
 44
0.0
176
     1
173
     0
176
     1
  0
ENDSEC
  0
EOF
